<?xml version="1.0" encoding="utf-8"?>
<!-- Generator: Adobe Illustrator 19.0.0, SVG Export Plug-In . SVG Version: 6.00 Build 0)  -->
<svg version="1.1" id="Layer_1" xmlns="http://www.w3.org/2000/svg" xmlns:xlink="http://www.w3.org/1999/xlink" x="0px" y="0px"
	 viewBox="635 -215 1920 1080" style="enable-background:new 635 -215 1920 1080;" xml:space="preserve">
<style type="text/css">
	.st0{fill:#FFFFFF;}
	.st1{fill:#062C35;}
	.st2{fill:#FFBCB3;}
	.st3{fill:#4B787F;}
	.st4{fill:#85BCC1;}
	.st5{fill:#47686B;}
	.st6{fill:#CFFDFF;}
	.st7{fill:#FF8745;}
	.st8{fill:#6B8687;}
	.st9{fill:#6AD7E5;}
	.st10{fill:#3FA9F5;}
	.st11{fill:#C4C2BB;}
	.st12{fill:#7C786E;}
	.st13{fill:#9B9686;}
	.st14{fill:none;stroke:#85BCC1;stroke-width:5;stroke-miterlimit:10;}
	.st15{fill:#FFFFFF;stroke:#000000;stroke-width:7.7869;stroke-miterlimit:10;}
	.st16{fill:#B1C9C9;}
</style>
<g>
	<g id="cat_x5F_tail">
		<g>
			<path class="st0" d="M927.3,703.6c0,0-15.1,6.3-35.2-0.2c-20.5-6.6-26.5-12.6-35-7.7c-10.6,6.2-7.6,27.5,18.1,33.6
				c26.3,6.3,47.6-1.3,57-15.2S927.3,703.6,927.3,703.6z"/>
			<path class="st1" d="M893.3,736.5c-6.2,0-12.6-0.8-19.2-2.3c-18.1-4.3-26.1-15.6-27.4-24.6c-1.1-7.6,1.9-14.6,8-18.1
				c8-4.7,14.5-2.1,24.3,1.8c3.9,1.6,8.7,3.5,14.8,5.4c18.1,5.8,31.6,0.4,31.7,0.3l0.4-0.2l0.4-0.1c1.5-0.4,9.2-1.9,12.8,3.3
				c3.8,5.4-1,12.6-2.6,15C927.9,729.5,912,736.5,893.3,736.5z M863.6,698.9c-1.4,0-2.6,0.4-3.9,1.1c-2.5,1.5-3.7,4.5-3.2,8
				c0.9,5.8,6.5,13.2,19.8,16.4c22.4,5.3,42.7,0.2,51.7-13.1c0.9-1.3,1.5-2.4,1.8-3.1c-0.4,0-0.8,0.1-1.1,0.1
				c-3,1.1-18.3,6.1-38.1-0.3c-6.4-2-11.4-4.1-15.4-5.7C869.4,700.1,866.1,698.9,863.6,698.9z"/>
		</g>
	</g>
	<g id="cat">
		<g>
			<g>
				
					<ellipse transform="matrix(-0.9995 -3.156075e-002 3.156075e-002 -0.9995 1950.6877 1427.9235)" class="st0" cx="986.6" cy="698.6" rx="46.2" ry="36.9"/>
			</g>
			<g>
				<g>
					<path class="st0" d="M1004.4,651.4c0,0-28.6-12.8-57,3.1c-28.8,16.1-30.7,46.3-26.8,63.2c3.1,13.2,4.9,18.9,39.9,18.8
						c35-0.1,1.9-13.4,1.9-13.4s7-9.3,0.6-27.7"/>
				</g>
				<path class="st1" d="M970,732.5c-9.1,1.5-19.4,1-28.5-0.1c-4.4-0.6-10.2-1.6-13.2-5.3c-2.2-2.7-2.9-7.5-3.6-10.8
					c-1.4-6.1-1.6-12.5-1-18.8c1.8-17.8,12.5-32.6,28.4-40.5c10.8-5.4,23.2-7,35.1-5.5c3.8,0.5,7.5,1.3,11.1,2.4
					c1.1,0.3,2.2,0.7,3.3,1.1c0.4,0.2,2.2,0.9,0.6,0.2c5,2.2,9.3-5.1,4.3-7.3c-16.6-7.3-37.2-7.3-53.9-0.4
					c-20.8,8.6-34.7,26.6-37.3,48.9c-0.9,7.8-0.3,15.6,1.4,23.2c1.2,5.1,2.7,10.4,6.7,14c5.1,4.7,12.5,5.8,19.1,6.5
					c6,0.6,12,0.7,18,0.7c4.9,0,10.5,0.1,15.1-1.7c7.2-2.8,5.7-9.6,0.5-13.5c-2.4-1.8-5-3.2-7.7-4.5c3.3-8.3,1.3-19.1-1.2-26.8
					c-1.7-5.2-9.9-3-8.2,2.3c2.3,7.1,4.8,17.7-0.2,24.5c-1.8,2.4-0.5,4.6,2.7,5.5C961.5,726.4,976.2,731,970,732.5z"/>
			</g>
			<g>
				<path class="st0" d="M1064.6,634.9c0.4-0.3,26.9-10.9,44.5-12.8c24.3-2.6,32.7,11.6,3.1,59.8
					C1090.7,716.7,1064.6,634.9,1064.6,634.9z"/>
				<path class="st1" d="M1100.7,695.2c-0.6,0-1.2,0-1.8-0.1c-9.2-1.1-18.3-11.3-27.8-31.2c-6.6-13.7-10.8-27-11-27.5l-1-3.1l2.6-2
					c1.8-1.4,29.8-11.9,46.8-13.7c12.1-1.3,20.3,1.4,24.4,7.9c6.7,10.6,1.4,29.4-16.8,58.9C1111.7,691.5,1106.5,695.2,1100.7,695.2z
					 M1070.4,637.6c7.1,20.6,20.1,47,29.7,48.2c2.6,0.3,5.3-1.8,8.1-6.4c20.5-33.4,19.4-45,16.9-49c-2.6-4.1-9.9-4.2-15.5-3.6
					C1096.6,628.1,1078.3,634.6,1070.4,637.6z"/>
			</g>
			<g>
				<path class="st0" d="M1063.1,617.1c-1.5-0.4-3-0.8-4.6-1.1c-16.6-40.2-33.6-46.7-47.2-24.3c-7.5,12.4-14.3,32.7-17,41.9
					c-6.1,6.4-10.9,12.2-14,21.5c-11.3,33.8,12.5,66.1,48.8,76.1c36.3,9.9,71.2-1.4,80.6-35.8C1119.2,660.8,1099.5,627,1063.1,617.1
					z"/>
				<path class="st1" d="M1053.8,739.5c-8.4,0-17.2-1.2-26-3.6c-21.5-5.9-39.1-19.2-48.4-36.6c-7.7-14.5-9-30.3-3.8-45.9
					c3.4-10.1,8.7-16.5,14.3-22.5c2.4-7.7,9.2-28.7,17.2-41.9c6.5-10.6,13.9-15.7,22.1-15.1c11.7,0.9,22.5,13.2,33,37.7
					c0.8,0.2,1.5,0.4,2.3,0.6l0,0c38.8,10.6,60.4,46.9,50.2,84.3c-4.9,17.9-16.4,31-33.2,37.8
					C1073.2,737.8,1063.8,739.5,1053.8,739.5z M1028,583.9c-5,0-9.4,5.6-12.3,10.3c-7.8,12.8-14.6,34.4-16.5,40.7l-0.3,1.1l-0.8,0.9
					c-5.3,5.6-10,11-12.9,19.6c-4.3,12.9-3.2,26,3.2,38c8,15,23.4,26.5,42.2,31.7c17.2,4.7,34,4.3,47.2-1.1
					c13.8-5.6,23.2-16.4,27.3-31.2c8.7-31.9-9.8-62.9-43.2-72c-1.3-0.3-2.6-0.7-4.3-1l-2.6-0.6l-1-2.4
					c-12.3-29.8-21.9-33.7-25.5-33.9C1028.3,583.9,1028.1,583.9,1028,583.9z"/>
			</g>
			<path class="st0" d="M1028.2,721.5c-8.3-5.3-41.1-6.1-41.1-6.1l0.9,18.8c0,0,13,0.2,30.3,1
				C1035.5,735.9,1036.4,726.9,1028.2,721.5z"/>
			<g>
				<path class="st2" d="M1084.3,710.4c-0.5,3-4.9,4.9-12.5,3.6c-7.6-1.2-10.8-4.2-10.3-7.3s4.5-4.9,12.1-3.7
					C1081.2,704.2,1084.8,707.3,1084.3,710.4z"/>
			</g>
			<g>
				<g>
					<path class="st1" d="M993.5,719.2c6.5,0,13.1,0.4,19.5,1.2c3.2,0.4,18.9,2.9,13.8,9.1c-2.8,3.4-9.1,2.7-12.9,2.5
						c-6.2-0.2-12.5-0.4-18.7-0.6c-7-0.2-13-0.4-20-0.7c-5.5-0.2-6.4,8.3-1,8.5c10.1,0.3,20.2,0.6,30.3,1c9.8,0.3,27.1,3,31.2-9.2
						c3.4-10.2-7.2-16.3-15.6-18c-8.7-1.8-17.7-2.3-26.5-2.3C988,710.7,988,719.2,993.5,719.2L993.5,719.2z"/>
				</g>
			</g>
			<g>
				<path class="st0" d="M1097.6,730.4c-0.1,5.5-13,7.9-26.5,7.8s-20.1-3.7-20.1-10.3c0.1-5.5,6.8-10,20.3-9.8
					S1097.7,724.8,1097.6,730.4z"/>
				<path class="st1" d="M1072.4,741.7c-0.4,0-0.9,0-1.3,0c-7.3-0.1-12.8-1.1-16.7-3.1c-5.7-3-6.9-7.5-6.9-10.7
					c0.1-6.5,6.2-13.4,23.2-13.4c0.2,0,0.4,0,0.7,0c6.8,0.1,14,1.7,19.7,4.5c6.5,3.2,10.1,7.2,10.1,11.4
					C1101.1,740.1,1083.7,741.7,1072.4,741.7z M1070.7,721.6c-11,0-16,3.2-16.1,6.3c0,1.4,0.3,3,3,4.3c2,1,5.9,2.2,13.5,2.3
					c14.8,0.2,22.7-2.4,22.9-4.3c0.1-0.8-1.5-2.7-6.1-4.9c-4.8-2.3-10.9-3.7-16.7-3.8C1071.1,721.6,1070.9,721.6,1070.7,721.6z"/>
			</g>
			<g>
				<g>
					<path class="st1" d="M1003.7,652.3c2.9,14.7,16.5,21.8,30.5,19.2c3.2-0.6,1.8-5.4-1.3-4.8c-11.6,2.1-22-3.9-24.3-15.7
						C1007.9,647.8,1003.1,649.1,1003.7,652.3L1003.7,652.3z"/>
				</g>
			</g>
			<g>
				<g>
					<path class="st1" d="M1055.2,681.5c4.7,14.1,18.7,20,32.5,15.6c3.1-1,1.8-5.8-1.3-4.8c-11.1,3.5-22.5-0.6-26.3-12.2
						C1059,677.1,1054.1,678.4,1055.2,681.5L1055.2,681.5z"/>
				</g>
			</g>
			<path class="st1" d="M1051.8,689.8c-2.8,3.7-9.2,3.1-9.5-2.1c-0.1-1.1,0.3-2.2,0.7-3.2c0.8-2-2.1-2.9-3.2-1.3
				c-4,5.7-11.4,1-8.3-5.2c1-2-2-3.8-3-1.8c-4.3,8.5,3.7,15.3,10.4,12.2c0.8,7.1,10.7,10.2,16,3.2
				C1056.1,689.8,1053.1,688,1051.8,689.8z"/>
			<g>
				<path class="st2" d="M1020.8,601.7c0,0-4.8,10.4-7.5,20.3c-2.1,8.1,3.7,5.8,18.1,3c14.4-2.8,14.9-4.8,9.2-15.4
					C1035,599,1027.7,587.9,1020.8,601.7z"/>
			</g>
			<g>
				<path class="st2" d="M1013.2,679.4c-1.7,2.5-6.5,2.4-12.8-1.9c-6.4-4.3-8-8.4-6.3-10.9s6.1-2.6,12.5,1.7
					S1014.9,676.8,1013.2,679.4z"/>
			</g>
		</g>
	</g>
	<g id="back_x5F_speaker">
		<g>
			<g>
				<g>
					<path class="st3" d="M2265.2,378.5h-132.8c-2,0-3.7-1.7-3.7-3.7V263.9c0-2,1.7-3.7,3.7-3.7h132.8c2,0,3.7,1.7,3.7,3.7v111
						C2268.9,376.8,2267.2,378.5,2265.2,378.5z"/>
				</g>
			</g>
			<g>
				
					<rect x="2181.7" y="248.3" transform="matrix(0.7956 0.6058 -0.6058 0.7956 639.9946 -1257.8923)" class="st4" width="5" height="142.5"/>
			</g>
			<polygon class="st4" points="2193.9,260.9 2131.1,343.4 2132,373.1 2216.7,260.9 			"/>
			<g>
				<g>
					<path class="st1" d="M2265.2,384h-132.8c-5.1,0-9.2-4.1-9.2-9.2V263.9c0-5.1,4.1-9.2,9.2-9.2h132.8c5.1,0,9.2,4.1,9.2,9.2v111
						C2274.4,379.9,2270.3,384,2265.2,384z M2134.2,373h129.1V265.7h-129.1V373z"/>
				</g>
			</g>
			<g>
				<g>
					<g>
						<rect x="2221.4" y="260.2" class="st1" width="7.4" height="116.8"/>
					</g>
				</g>
			</g>
			<g>
				<g>
					<g>
						<path class="st1" d="M2247.9,280.3c3.3,0,5.9,3.1,5.9,6.9s-2.6,6.9-5.9,6.9s-5.9-3.1-5.9-6.9S2244.6,280.3,2247.9,280.3
							 M2247.9,274.1c-6.7,0-12.1,5.8-12.1,13s5.4,13,12.1,13s12.1-5.8,12.1-13S2254.5,274.1,2247.9,274.1L2247.9,274.1z"/>
					</g>
				</g>
			</g>
			<g>
				<g>
					<g>
						<path class="st1" d="M2247.9,311.7c3.3,0,5.9,3.1,5.9,6.9s-2.6,6.9-5.9,6.9s-5.9-3.1-5.9-6.9S2244.6,311.7,2247.9,311.7
							 M2247.9,305.5c-6.7,0-12.1,5.8-12.1,13s5.4,13,12.1,13s12.1-5.8,12.1-13S2254.5,305.5,2247.9,305.5L2247.9,305.5z"/>
					</g>
				</g>
			</g>
		</g>
	</g>
	<g id="tower">
		<g>
			<g>
				<g>
					<g>
						<g>
							<path class="st3" d="M2107.6,730.8c-4.6,0-8.4-3.8-8.4-8.4v-28.8c0-4.6,3.8-8.4,8.4-8.4h23.1c4.6,0,8.4,3.8,8.4,8.4v28.8
								c0,4.6-3.8,8.4-8.4,8.4H2107.6z"/>
						</g>
					</g>
				</g>
				<g>
					<g>
						<g>
							<path class="st1" d="M2130.7,690.2c1.9,0,3.4,1.5,3.4,3.4v28.8c0,1.9-1.5,3.4-3.4,3.4h-23.1c-1.9,0-3.4-1.5-3.4-3.4v-28.8
								c0-1.9,1.5-3.4,3.4-3.4H2130.7 M2130.7,680.2h-23.1c-7.4,0-13.4,6-13.4,13.4v28.8c0,7.4,6,13.4,13.4,13.4h23.1
								c7.4,0,13.4-6,13.4-13.4v-28.8C2144.1,686.3,2138.1,680.2,2130.7,680.2L2130.7,680.2z"/>
						</g>
					</g>
				</g>
			</g>
			<g>
				<g>
					<g>
						<g>
							<path class="st3" d="M1937.2,730.8c-4.6,0-8.4-3.8-8.4-8.4v-28.8c0-4.6,3.8-8.4,8.4-8.4h23.1c4.6,0,8.4,3.8,8.4,8.4v28.8
								c0,4.6-3.8,8.4-8.4,8.4H1937.2z"/>
						</g>
					</g>
				</g>
				<g>
					<g>
						<g>
							<path class="st1" d="M1960.3,690.2c1.9,0,3.4,1.5,3.4,3.4v28.8c0,1.9-1.5,3.4-3.4,3.4h-23.1c-1.9,0-3.4-1.5-3.4-3.4v-28.8
								c0-1.9,1.5-3.4,3.4-3.4H1960.3 M1960.3,680.2h-23.1c-7.4,0-13.4,6-13.4,13.4v28.8c0,7.4,6,13.4,13.4,13.4h23.1
								c7.4,0,13.4-6,13.4-13.4v-28.8C1973.7,686.3,1967.7,680.2,1960.3,680.2L1960.3,680.2z"/>
						</g>
					</g>
				</g>
			</g>
			<g>
				<g>
					<g>
						<g>
							<path class="st3" d="M1866.7,730.8c-4.6,0-8.4-3.8-8.4-8.4v-28.8c0-4.6,3.8-8.4,8.4-8.4h23.1c4.6,0,8.4,3.8,8.4,8.4v28.8
								c0,4.6-3.8,8.4-8.4,8.4H1866.7z"/>
						</g>
					</g>
				</g>
				<g>
					<g>
						<g>
							<path class="st1" d="M1889.8,690.2c1.9,0,3.4,1.5,3.4,3.4v28.8c0,1.9-1.5,3.4-3.4,3.4h-23.1c-1.9,0-3.4-1.5-3.4-3.4v-28.8
								c0-1.9,1.5-3.4,3.4-3.4H1889.8 M1889.8,680.2h-23.1c-7.4,0-13.4,6-13.4,13.4v28.8c0,7.4,6,13.4,13.4,13.4h23.1
								c7.4,0,13.4-6,13.4-13.4v-28.8C1903.2,686.3,1897.2,680.2,1889.8,680.2L1889.8,680.2z"/>
						</g>
					</g>
				</g>
			</g>
			<g>
				<g>
					<g>
						<g>
							<path class="st5" d="M1847.3,712c-5.5,0-9.9-4.5-9.9-9.9V506.8c0-5.5,4.5-9.9,9.9-9.9h298.6c5.5,0,9.9,4.5,9.9,9.9v195.3
								c0,5.5-4.5,9.9-9.9,9.9L1847.3,712L1847.3,712z"/>
						</g>
					</g>
				</g>
				<g>
					<g>
						<g>
							<path class="st1" d="M2146,502.8c2.2,0,3.9,1.8,3.9,3.9V702c0,2.2-1.8,3.9-3.9,3.9h-298.6c-2.2,0-3.9-1.8-3.9-3.9V506.8
								c0-2.2,1.8-3.9,3.9-3.9L2146,502.8 M2146,490.8h-298.6c-8.8,0-15.9,7.1-15.9,15.9V702c0,8.8,7.1,15.9,15.9,15.9H2146
								c8.8,0,15.9-7.1,15.9-15.9V506.8C2161.9,498,2154.7,490.8,2146,490.8L2146,490.8z"/>
						</g>
					</g>
				</g>
			</g>
			<polygon class="st4" points="2002.9,527.9 2002.9,678.1 1999.8,684.1 1914.4,684.1 1902.8,663.9 1876,607.1 1876,599.7 
				1906.5,524.9 1918.7,524.1 1996.7,524.1 			"/>
			<g>
				<polygon class="st6" points="1906.8,670.8 1901.7,664.4 2001.4,533.4 2004.8,542 				"/>
			</g>
			<g>
				<polygon class="st6" points="1957.7,524.1 1882.2,623.4 1896.6,653.3 1993.7,524.7 				"/>
			</g>
			<rect x="2099.2" y="594.2" class="st4" width="37.9" height="45.5"/>
			<rect x="2097.2" y="653.4" class="st4" width="31.5" height="33.3"/>
			<rect x="2046.4" y="584.7" class="st4" width="28.2" height="109.3"/>
			<g>
				<g>
					<g>
						<rect x="2025.4" y="496.7" class="st1" width="8" height="211.3"/>
					</g>
				</g>
			</g>
			<g>
				<g>
					<g>
						<path class="st1" d="M1996.1,528.2c1.7,0,3,1.3,3,3v145.7c0,1.6-1.3,3-3,3h-77.7c-1.7,0-3.6-1.2-4.4-2.7l-34.6-68.6
							c-0.7-1.5-0.9-3.9-0.3-5.5l28.3-72.1c0.6-1.5,2.4-2.8,4.1-2.8L1996.1,528.2 M1996.1,520.2h-84.5c-5,0-9.7,3.2-11.5,7.9
							l-28.3,72.1c-1.4,3.7-1.2,8.5,0.6,12l34.6,68.6c2.1,4.2,6.8,7.1,11.5,7.1h77.7c6.1,0,11-4.9,11-11V531.2
							C2007.1,525.2,2002.2,520.2,1996.1,520.2L1996.1,520.2z"/>
					</g>
				</g>
			</g>
			<g>
				<g>
					<g>
						<path class="st1" d="M2069.8,587.6c1,0,1.8,0.8,1.8,1.8v100.8c0,1-0.8,1.8-1.8,1.8h-18.5c-1,0-1.8-0.8-1.8-1.8V589.3
							c0-1,0.8-1.8,1.8-1.8L2069.8,587.6 M2069.8,581.1h-18.5c-4.6,0-8.3,3.7-8.3,8.3v100.8c0,4.6,3.7,8.3,8.3,8.3h18.5
							c4.6,0,8.3-3.7,8.3-8.3V589.3C2078.1,584.8,2074.4,581.1,2069.8,581.1L2069.8,581.1z"/>
					</g>
				</g>
			</g>
			<g>
				<g>
					<g>
						<path class="st1" d="M2132.2,598.1c1.1,0,1.9,0.9,1.9,1.9v35.3c0,1.1-0.9,1.9-1.9,1.9h-29.3c-1.1,0-1.9-0.9-1.9-1.9V600
							c0-1.1,0.9-1.9,1.9-1.9H2132.2 M2132.2,591.6h-29.3c-4.6,0-8.4,3.8-8.4,8.4v35.3c0,4.6,3.8,8.4,8.4,8.4h29.3
							c4.6,0,8.4-3.8,8.4-8.4V600C2140.7,595.4,2136.9,591.6,2132.2,591.6L2132.2,591.6z"/>
					</g>
				</g>
			</g>
			<ellipse class="st4" cx="2107.8" cy="548.4" rx="30" ry="33.8"/>
			<g>
				<g>
					<g>
						<path class="st1" d="M2123.9,656.4c0.8,0,1.4,0.6,1.4,1.4V683c0,0.8-0.6,1.4-1.4,1.4h-21.4c-0.8,0-1.4-0.6-1.4-1.4v-25.2
							c0-0.8,0.6-1.4,1.4-1.4H2123.9 M2123.9,649.9h-21.4c-4.4,0-7.9,3.6-7.9,7.9V683c0,4.4,3.6,7.9,7.9,7.9h21.4
							c4.4,0,7.9-3.6,7.9-7.9v-25.2C2131.8,653.4,2128.2,649.9,2123.9,649.9L2123.9,649.9z"/>
					</g>
				</g>
			</g>
			<g>
				<g>
					<g>
						<g>
							<path class="st1" d="M2047.2,524.7c6.5,0,13,0,19.5,0c3.2,0,3.2-5,0-5c-6.5,0-13,0-19.5,0
								C2044,519.7,2044,524.7,2047.2,524.7L2047.2,524.7z"/>
						</g>
					</g>
				</g>
			</g>
			<g>
				<g>
					<g>
						<g>
							<path class="st1" d="M2047.2,535.9c6.5,0,13,0,19.5,0c3.2,0,3.2-5,0-5c-6.5,0-13,0-19.5,0
								C2044,530.9,2044,535.9,2047.2,535.9L2047.2,535.9z"/>
						</g>
					</g>
				</g>
			</g>
			<g>
				<g>
					<g>
						<g>
							<path class="st1" d="M2047.2,547.1c6.5,0,13,0,19.5,0c3.2,0,3.2-5,0-5c-6.5,0-13,0-19.5,0
								C2044,542.1,2044,547.1,2047.2,547.1L2047.2,547.1z"/>
						</g>
					</g>
				</g>
			</g>
			<g>
				<g>
					<g>
						<path class="st1" d="M2107.8,584.7c-18.3,0-33.1-16.3-33.1-36.4s14.9-36.4,33.1-36.4c18.3,0,33.1,16.3,33.1,36.4
							C2140.9,568.4,2126,584.7,2107.8,584.7z M2107.8,518.4c-14.7,0-26.6,13.4-26.6,29.9s12,29.9,26.6,29.9
							c14.7,0,26.6-13.4,26.6-29.9S2122.4,518.4,2107.8,518.4z"/>
					</g>
				</g>
			</g>
			<g>
				<g>
					<g>
						<path class="st1" d="M2108.8,573c-12.4,0-22.5-11-22.5-24.6s10.1-24.6,22.5-24.6s22.5,11,22.5,24.6S2121.2,573,2108.8,573z
							 M2108.8,529.7c-9.1,0-16.5,8.4-16.5,18.6s7.4,18.6,16.5,18.6s16.5-8.4,16.5-18.6S2117.9,529.7,2108.8,529.7z"/>
					</g>
				</g>
			</g>
			<g>
				<g>
					<g>
						<path class="st1" d="M2109.8,559.7c-5.8,0-10.5-5.1-10.5-11.4s4.7-11.4,10.5-11.4s10.5,5.1,10.5,11.4
							S2115.6,559.7,2109.8,559.7z M2109.8,542c-3,0-5.5,2.9-5.5,6.4s2.5,6.4,5.5,6.4s5.5-2.9,5.5-6.4S2112.8,542,2109.8,542z"/>
					</g>
				</g>
			</g>
			<g>
				<g>
					<g>
						
							<rect x="2111.2" y="561.3" transform="matrix(0.6497 0.7602 -0.7602 0.6497 1171.6154 -1415.8505)" class="st1" width="21.7" height="4"/>
					</g>
				</g>
			</g>
			<g>
				<g>
					<g>
						
							<rect x="2083.6" y="531" transform="matrix(0.6497 0.7602 -0.7602 0.6497 1139.3877 -1406.6664)" class="st1" width="24.7" height="4"/>
					</g>
				</g>
			</g>
			<g>
				<g>
					<g>
						
							<rect x="2093.4" y="550.7" transform="matrix(0.7628 0.6466 -0.6466 0.7628 861.0732 -1221.3599)" class="st1" width="4" height="24.8"/>
					</g>
				</g>
			</g>
			<g>
				<g>
					<g>
						
							<rect x="2119.3" y="521.8" transform="matrix(0.7628 0.6466 -0.6466 0.7628 847.5616 -1245.3361)" class="st1" width="4" height="21.8"/>
					</g>
				</g>
			</g>
			<g>
				<g>
					<g>
						<rect x="2098" y="614.7" class="st1" width="39.1" height="6"/>
					</g>
				</g>
			</g>
			<g>
				<g>
					<g>
						<rect x="2098.6" y="663.3" class="st1" width="29.2" height="4"/>
					</g>
				</g>
			</g>
			<g>
				<g>
					<g>
						<rect x="2098.1" y="674.1" class="st1" width="29.2" height="4"/>
					</g>
				</g>
			</g>
		</g>
	</g>
	<g id="chair">
		<g>
			<g>
				<g>
					<g>
						<g>
							<rect x="1283.1" y="544.2" class="st0" width="36.3" height="120"/>
						</g>
					</g>
				</g>
				<g>
					<g>
						<g>
							<path class="st1" d="M1313.4,550.2v108h-24.3v-108H1313.4 M1325.4,538.2h-12h-24.3h-12v12v108v12h12h24.3h12v-12v-108V538.2
								L1325.4,538.2z"/>
						</g>
					</g>
				</g>
			</g>
			<g>
				<g>
					<g>
						<path class="st0" d="M1319.2,292.6c0,0-25.3-95.3-109-115.7c-70.4-17.1-194.8,9.5-169.6,96.3c15.1,52,42.3,67.8,58.1,179.7
							c16.2,115.7,37.2,121.7,117.5,116.7s120.3,3.7,217,4s117.3-45.4,105.5-81.7c-16.9-52-126.2-29.7-159.2-39
							C1339.9,441.7,1341.2,366.4,1319.2,292.6z"/>
					</g>
				</g>
			</g>
			<g>
				<g>
					<g>
						<path class="st1" d="M1544.4,490c-6-18.4-22.1-30.2-49.1-35.9c-22-4.7-47.7-4.6-70.4-4.6c-17.9,0-34.7,0.1-43.8-2.5
							c-24.1-6.8-31.4-43.4-40.7-89.8c-4.1-20.5-8.7-43.7-15.5-66.4c-0.5-1.9-7.1-25.5-23.8-51.8c-22.8-35.8-53.8-59.4-89.5-68.1
							c-50.3-12.2-126.3-2.9-161.3,33.6c-18,18.8-23.4,43.1-15.6,70.1c5.2,18.1,11.9,31.9,19,46.5c13.4,27.8,28.7,59.3,39,132.4
							c8.8,62.2,18.7,91.3,36.7,107.3c19.6,17.4,48.5,17,87.2,14.6c46.4-2.9,79.5-1.2,117.8,0.8c27.3,1.4,58.3,3.1,98.8,3.2
							c0.3,0,0.7,0,1,0c63.2,0,90.8-19.5,102.7-35.9C1548,528.4,1550.7,509.4,1544.4,490z M1208.8,182.7c33,8,60.7,29.1,82.1,62.6
							c16.1,25.2,22.5,48.4,22.6,48.8v0.2c6.6,22.2,11,44.2,15.2,65.4c4.7,23.7,9.2,46.1,16,63.2c8,20.3,18.6,31.6,33.2,35.8
							c10.7,3,27.5,3,47,2.9c41.3-0.1,92.3-0.2,106.2,27.7c2.3,5.1-1,11-5.4,15.3c-25.3,24.7-93.2,24-143.9,18.7
							c-48.3-5.1-101.5-9.2-171.8-2.7c-29,2.7-44.9-4-53.2-13c-8.5-9.2-11.1-25.8-15-51c-1-6.4-2-13-3.3-20.3
							c-9.7-56.5-20.5-82.6-40.1-129.9c-3.8-9.2-8.1-19.7-12.8-31.2c-25.4-62.6-7.8-76.4-3.9-78.7
							C1117.3,177.7,1170.8,173.5,1208.8,182.7z M1527.2,536.6c-10.3,14.2-34.8,31-93,31c-0.3,0-0.7,0-1,0
							c-40.2-0.1-71.1-1.7-98.2-3.2c-23.9-1.2-45.7-2.4-70-2.4c-15.1,0-31.1,0.4-49.1,1.6c-76.6,4.8-95.3,1.6-111.3-111.5
							c-10.6-75-26.2-107.4-40-136c-6.8-14.1-13.3-27.5-18.2-44.6c-6.7-23-2.4-42.7,12.7-58.5c0.8-0.9,1.7-1.7,2.6-2.6
							c-3,17.6,1.3,40.9,12.8,69.2c4.7,11.6,9,22.1,12.9,31.3c19.9,48,29.9,72.1,39.4,127.3c1.2,7.2,2.3,13.8,3.3,20.1
							c4.1,26.4,7.1,45.4,18.1,57.3c11.3,12.2,29.6,19.9,63.2,16.8c69.3-6.4,121.7-2.2,169.5,2.7c16.9,1.7,38.7,3.3,60.7,3.3
							c37.4,0,75.7-8.7,92.8-25.4c0.6-0.5,1.1-1.1,1.6-1.6C1535.5,520.6,1532.6,529.2,1527.2,536.6z"/>
					</g>
				</g>
			</g>
			<g>
				<g>
					<g>
						<g>
							<path class="st7" d="M1135,547.2c-6.4,0-11.8-7.8-14.5-14.6c-4.2-10.6-3.1-19.7,2.7-22c0.8-0.3,1.7-0.5,2.7-0.5
								c6.4,0,11.8,7.8,14.5,14.6c1.7,4.3,2.6,8.6,2.5,12.3c-0.1,6.7-3.4,8.9-5.3,9.7C1136.8,547,1135.9,547.2,1135,547.2z"/>
						</g>
					</g>
				</g>
				<g>
					<g>
						<g>
							<path class="st1" d="M1125.9,514.4c3.3,0,7.7,4.9,10.5,11.9c3.1,7.8,3,15.1-0.3,16.4c-0.3,0.1-0.7,0.2-1.1,0.2
								c-3.3,0-7.7-4.9-10.5-11.9c-3.1-7.8-3-15.1,0.3-16.4C1125.2,514.5,1125.6,514.4,1125.9,514.4 M1125.9,505.9L1125.9,505.9
								L1125.9,505.9c-1.5,0-2.9,0.3-4.3,0.8c-8.3,3.3-10.4,14.4-5.1,27.6c3.3,8.3,9.9,17.2,18.4,17.2c1.5,0,2.9-0.3,4.3-0.8
								c8.3-3.3,10.4-14.4,5.1-27.6C1141,514.8,1134.5,505.9,1125.9,505.9L1125.9,505.9z"/>
						</g>
					</g>
				</g>
			</g>
			<g>
				<g>
					<g>
						<g>
							<path class="st7" d="M1270.5,677v-40.8c0-8.5,6.9-15.4,15.4-15.4h30.8c8.5,0,15.4,6.9,15.4,15.4V677H1270.5z"/>
						</g>
					</g>
				</g>
				<g>
					<g>
						<g>
							<path class="st1" d="M1316.7,626.9c5.1,0,9.4,4.2,9.4,9.4v34.8h-49.5v-34.8c0-5.1,4.2-9.4,9.4-9.4H1316.7 M1316.7,614.9
								h-30.8c-11.8,0-21.4,9.6-21.4,21.4v34.8v12h12h49.5h12v-12v-34.8C1338,624.5,1328.4,614.9,1316.7,614.9L1316.7,614.9z"/>
						</g>
					</g>
				</g>
			</g>
			<g>
				<g>
					<g>
						<g>
							<path class="st8" d="M1177.6,728.1c-12.4,0-22.5-10.1-22.5-22.5s10.1-22.5,22.5-22.5s22.5,10.1,22.5,22.5
								S1190,728.1,1177.6,728.1z"/>
						</g>
					</g>
				</g>
				<g>
					<g>
						<g>
							<path class="st1" d="M1177.6,689.1c9.1,0,16.5,7.4,16.5,16.5s-7.4,16.5-16.5,16.5s-16.5-7.4-16.5-16.5
								S1168.5,689.1,1177.6,689.1 M1177.6,677.1c-15.7,0-28.5,12.8-28.5,28.5s12.8,28.5,28.5,28.5s28.5-12.8,28.5-28.5
								S1193.3,677.1,1177.6,677.1L1177.6,677.1z"/>
						</g>
					</g>
				</g>
			</g>
			<g>
				<g>
					<g>
						<g>
							<path class="st8" d="M1301.3,728.1c-12.4,0-22.5-10.1-22.5-22.5s10.1-22.5,22.5-22.5s22.5,10.1,22.5,22.5
								S1313.7,728.1,1301.3,728.1z"/>
						</g>
					</g>
				</g>
				<g>
					<g>
						<g>
							<path class="st1" d="M1301.3,689.1c9.1,0,16.5,7.4,16.5,16.5s-7.4,16.5-16.5,16.5s-16.5-7.4-16.5-16.5
								S1292.2,689.1,1301.3,689.1 M1301.3,677.1c-15.7,0-28.5,12.8-28.5,28.5s12.8,28.5,28.5,28.5s28.5-12.8,28.5-28.5
								S1317,677.1,1301.3,677.1L1301.3,677.1z"/>
						</g>
					</g>
				</g>
			</g>
			<g>
				<g>
					<g>
						<g>
							<path class="st8" d="M1424.9,728.1c-12.4,0-22.5-10.1-22.5-22.5s10.1-22.5,22.5-22.5s22.5,10.1,22.5,22.5
								S1437.3,728.1,1424.9,728.1z"/>
						</g>
					</g>
				</g>
				<g>
					<g>
						<g>
							<path class="st1" d="M1424.9,689.1c9.1,0,16.5,7.4,16.5,16.5s-7.4,16.5-16.5,16.5s-16.5-7.4-16.5-16.5
								S1415.8,689.1,1424.9,689.1 M1424.9,677.1c-15.7,0-28.5,12.8-28.5,28.5s12.8,28.5,28.5,28.5s28.5-12.8,28.5-28.5
								S1440.6,677.1,1424.9,677.1L1424.9,677.1z"/>
						</g>
					</g>
				</g>
			</g>
			<g>
				<g>
					<g>
						<path class="st7" d="M1449.2,700.7h-297.1c-7,0-12.7-5.7-12.7-12.7l0,0c0-7,5.7-12.7,12.7-12.7h297.2c7,0,12.7,5.7,12.7,12.7
							l0,0C1461.9,695,1456.2,700.7,1449.2,700.7z"/>
					</g>
				</g>
				<g>
					<g>
						<path class="st1" d="M1449.2,706.7h-297.1c-10.3,0-18.7-8.4-18.7-18.7s8.4-18.7,18.7-18.7h297.2c10.3,0,18.7,8.4,18.7,18.7
							S1459.5,706.7,1449.2,706.7z M1152.1,681.3c-3.7,0-6.7,3-6.7,6.7s3,6.7,6.7,6.7h297.2c3.7,0,6.7-3,6.7-6.7s-3-6.7-6.7-6.7
							H1152.1z"/>
					</g>
				</g>
			</g>
		</g>
	</g>
	<g id="kappa_x5F_body2">
		<g>
			<g>
				<g>
					<path class="st9" d="M1231.9,416.1c0,0-35,69.8,30.7,81.8c37.3,6.8,51.7,0.4,119.7-11.5s16.1-76,1.5-86.9
						C1369.1,388.5,1231.9,416.1,1231.9,416.1z"/>
				</g>
				<g>
					<path class="st1" d="M1290.3,508c-8.9,0-18-0.9-29-2.9c-20-3.7-33.7-12.7-40.8-26.8c-13.8-27.6,4.1-63.9,4.9-65.4l1.6-3.2
						l3.5-0.7c0.3-0.1,34.9-7,70.8-12.5c75.3-11.5,83.1-5.7,86.9-2.8c9.3,7,41.6,42.4,34.7,71.1c-3.7,15.2-16.9,24.9-39.3,28.9
						c-14.3,2.5-26,4.7-36.4,6.7C1322,505,1306.4,508,1290.3,508z M1237,422.6c-3.6,8.5-12,32.2-3.5,49.2
						c4.9,9.8,15.1,16.2,30.3,18.9c28.1,5.1,42.4,2.4,80.5-4.8c10.4-2,22.3-4.2,36.6-6.7c16.2-2.8,25.4-8.8,27.6-17.9
						c4.5-18.9-19.7-48.8-29.1-55.9c-1.8-0.9-13.2-4.2-77.7,5.8C1273.6,415.5,1246.6,420.7,1237,422.6z"/>
				</g>
			</g>
			<g>
				<g>
					<path class="st1" d="M1465.7,457.3c0,0-1.5-34.9-50.9-40.2c-45.5-4.9-56.7,9.2-58.9,26.6c-2.3,17.4,10.9,31,26.9,32.9
						c15.9,1.9,25.7,6.8,26.9,20.4c1.3,13.5,60.2-3.4,60.2-3.4L1465.7,457.3z"/>
				</g>
			</g>
			<g>
				<g>
					<path class="st1" d="M1380.8,474.7c0,0-3.2-26.4-48.9-28.2s-56.7,9.2-58.9,26.6c-2.3,17.4,10.9,29,26.9,30.9
						s25.7,4.8,26.9,18.4c1.2,13.6,60.2,0.6,60.2,0.6L1380.8,474.7z"/>
				</g>
			</g>
		</g>
	</g>
	<g id="kappa_x5F_leg2">
		<g>
			<g>
				<g>
					<g>
						<g>
							<path class="st10" d="M1409.6,584.4c0,0-14.4,10.2-21.9,40.8l140.5,29.1c0,0,16.5-39-39.3-67.1
								C1488.9,587.2,1448.4,562.7,1409.6,584.4z"/>
						</g>
					</g>
				</g>
				<path class="st1" d="M1529.2,614.2c-12.3-21.2-37.8-35.7-61.2-41.7c-20.1-5.1-41-3.6-59.5,5.8c-0.6,0.2-1.2,0.5-1.8,0.9
					c-0.7,0.4-1.3,0.8-1.7,1.3c-12.6,10.2-19.2,28.1-23,43c-0.8,3,1,6.7,4.2,7.4c41,8.5,82.1,17,123.1,25.5
					c5.8,1.2,11.6,2.4,17.4,3.6c3.5,0.7,6.1-1,7.4-4.2C1539.5,642.7,1536,626,1529.2,614.2z M1406.7,623c-3.8-0.8-7.7-1.6-11.5-2.4
					c2.6-8.5,6.1-16.6,11.2-23.9c1.5-2.1,3.2-4.1,5-5.9c0.3-0.3,1.2-1,1.7-1.5c23-12.2,50.2-9,72.6,3c19,10.2,39,25.6,38.7,48.9
					c0,3.1-0.1,4.1-0.5,6.1C1484.9,639.2,1445.8,631.1,1406.7,623z"/>
			</g>
			<g>
				<g>
					<g>
						<path class="st10" d="M1424.2,463.4c0,0-16.6,11.2-26.4,35.8c-10.5,26.4-9,71-5.2,84.3c4.5,15.9,19.7,26.1,39.3,17.4
							c19.7-8.7,28.3-13.7,49-18.4s17.5-24.2,15.6-48.5c-2.3-29.7-12.2-56.2-22.2-67.5C1462.5,453,1440.8,451.9,1424.2,463.4z"/>
					</g>
				</g>
				<g>
					<g>
						<path class="st1" d="M1418,610.1c-5.5,0-9.9-1.3-13.3-2.9c-8.5-4-15.1-12-17.9-22.1c-4.3-14.9-5.5-60.9,5.4-88.2
							c10.2-25.6,27.3-37.6,28.6-38.5c19.3-13.4,44.2-11.6,58.1,4.1c11.9,13.6,21.5,42.1,23.7,71c0.1,1.7,0.3,3.3,0.4,5
							c1.8,21.8,3.6,44.4-20.7,49.9c-16.3,3.7-25,7.6-38.1,13.6c-3,1.4-6.2,2.8-9.8,4.4C1428.2,609.1,1422.7,610.1,1418,610.1z
							 M1427.6,468.4c-0.3,0.2-15.3,10.8-24.2,33c-10.1,25.4-8.4,68.4-5,80.5c1.9,6.8,6,11.9,11.5,14.5c5.6,2.6,12.4,2.3,19.7-0.9
							c3.5-1.6,6.7-3,9.7-4.4c13.8-6.3,22.9-10.4,40.4-14.4c12.9-2.9,13.4-12.5,11.4-37.2c-0.1-1.6-0.3-3.3-0.4-5
							c-2.2-29.1-12.1-54.2-20.7-64C1460,459.3,1441.9,458.4,1427.6,468.4L1427.6,468.4z"/>
					</g>
				</g>
			</g>
			<g>
				<g>
					<g>
						
							<rect x="1414.9" y="611.5" transform="matrix(0.2324 0.9726 -0.9726 0.2324 1699.3066 -920.1921)" class="st1" width="35.5" height="10"/>
					</g>
				</g>
			</g>
			<g>
				<g>
					<g>
						
							<rect x="1481.9" y="591.2" transform="matrix(0.5106 0.8598 -0.8598 0.5106 1263.4678 -973.4555)" class="st1" width="10" height="64"/>
					</g>
				</g>
			</g>
		</g>
	</g>
	<g id="kappa_x5F_leg1">
		<g>
			<g>
				<g>
					<g>
						<g>
							<path class="st10" d="M1321.2,598.2c0,0-13.4,9.7-17.6,40.9l145.4,15.5c0,0,10-42.3-48.5-64.2
								C1400.5,590.4,1357.4,572.5,1321.2,598.2z"/>
						</g>
					</g>
				</g>
				<path class="st1" d="M1444.1,613.5c-15.3-20.3-41.3-31.6-66.1-34.5c-20.7-2.4-41.9,1.8-59.2,13.6c-0.2,0.1-0.4,0.3-0.6,0.4
					c-0.2,0.1-0.4,0.3-0.6,0.5c-12.8,9.9-17.6,29.1-19.8,44.1c-0.6,4.1,1.6,7.1,5.8,7.6c42.5,4.5,84.9,9,127.4,13.6
					c6,0.6,12.1,1.3,18.1,1.9c2.5,0.3,5.2-2,5.8-4.4C1458.2,641.6,1452.8,625.1,1444.1,613.5z M1321.7,635.1
					c-3.7-0.4-7.4-0.8-11.2-1.2c1.6-8.2,4.1-16.3,8.4-23.5c1.5-2.5,2.5-3.9,4.3-5.8c0.4-0.4,1.7-1.5,2-1.8
					c21.6-14.5,49.4-15.7,73.4-6.7c20.7,7.8,41.2,22.3,44.7,45.6c0.1,0.6,0.3,3,0.4,4.7c0,0.6,0,1.2,0,1.7
					C1403,643.7,1362.3,639.4,1321.7,635.1z"/>
			</g>
			<g>
				<g>
					<g>
						<path class="st10" d="M1337,469.6c0,0-16.6,11.2-26.4,35.8c-10.5,26.4-9,71-5.2,84.3c4.5,15.9,19.7,26.1,39.3,17.4
							c19.7-8.7,28.3-13.7,49-18.4s17.5-24.2,15.6-48.5c-2.3-29.7-12.2-56.2-22.2-67.5C1375.3,459.2,1353.6,458.1,1337,469.6z"/>
					</g>
				</g>
				<g>
					<g>
						<path class="st1" d="M1330.8,616.4c-5.5,0-9.9-1.3-13.3-2.9c-8.5-4-15.1-12-17.9-22.1c-4.3-14.9-5.5-60.9,5.4-88.2
							c10.2-25.6,27.4-37.7,28.6-38.5c19.3-13.4,44.2-11.6,58.1,4.1c11.9,13.6,21.5,42.1,23.7,71c0.1,1.7,0.3,3.3,0.4,5
							c1.8,21.8,3.6,44.4-20.7,49.9c-16.3,3.7-25,7.6-38.1,13.6c-3,1.4-6.2,2.8-9.8,4.4C1341,615.4,1335.5,616.4,1330.8,616.4z
							 M1340.3,474.6c-0.3,0.2-15.3,10.8-24.2,33c-10.1,25.4-8.4,68.4-5,80.5c1.9,6.8,6,11.9,11.5,14.5c5.6,2.6,12.4,2.3,19.7-0.9
							c3.5-1.6,6.7-3,9.7-4.4c13.8-6.3,22.9-10.4,40.4-14.4c12.9-2.9,13.4-12.5,11.4-37.2c-0.1-1.6-0.3-3.3-0.4-5
							c-2.2-29.1-12.1-54.2-20.7-64C1372.8,465.6,1354.7,464.6,1340.3,474.6L1340.3,474.6z"/>
					</g>
				</g>
			</g>
			<g>
				<g>
					<g>
						
							<rect x="1329.7" y="622.6" transform="matrix(0.3362 0.9418 -0.9418 0.3362 1485.5289 -852.3958)" class="st1" width="35.5" height="10"/>
					</g>
				</g>
			</g>
			<g>
				<g>
					<g>
						<polygon class="st1" points="1387.6,651.6 1381.5,643.7 1431.7,609.3 1437.8,617.2 						"/>
					</g>
				</g>
			</g>
		</g>
	</g>
	<g id="kappa_x5F_backarm">
		<g>
			<g>
				<g>
					<path class="st1" d="M1427.9,344.9c0,0,10.3,27.3,30.3,52.3s-42.3,7.7-42.3,7.7l-34.2-22L1427.9,344.9z"/>
				</g>
			</g>
			<g>
				<g>
					<path class="st10" d="M1432.2,347.9c-15.4,22.7-40.7,20.3-63.4,4.9c-22.7-15.4-32.1-43.5-16.7-66.2s44.4-26.4,67.1-11
						S1447.6,325.2,1432.2,347.9z"/>
				</g>
				<g>
					<path class="st1" d="M1402.1,370.6c-11.6,0-24.2-4.4-36.7-12.9s-21.4-20.5-25-33.7c-3.9-14.1-1.5-28.6,6.8-40.8
						s20.7-20.2,34.9-22.3c13.8-2.1,28.2,1.4,40.6,9.8c12.1,8.2,20.6,21.8,23.3,37.4c2.7,15.4-0.5,31.1-8.8,43.3l0,0
						c-8.3,12.3-20,19-33.7,19.4C1403,370.6,1402.5,370.6,1402.1,370.6z M1390,272.3c-2.1,0-4.1,0.2-6.1,0.5
						c-10.8,1.7-20.3,7.8-26.8,17.2c-6.4,9.4-8.1,20-5.1,30.9c2.9,10.5,10.1,20.1,20.2,27c10.8,7.3,21.5,11.1,30.9,10.8
						c9.9-0.3,18-5,24.2-14.1l0,0c6.5-9.6,9-22.2,6.9-34.5c-2.2-12.3-8.8-23.1-18.2-29.5C1407.9,275.1,1398.9,272.3,1390,272.3z"/>
				</g>
			</g>
		</g>
	</g>
	<g id="kappa_x5F_body">
		<g>
			<g>
				<path class="st10" d="M1345.9,262.3c0,0,36.4,35.9,59.5,86.4s7.5,81.2-12.5,94.7s-104.2,20.5-141.8,4.5
					c-37.7-16-37.4-76.9-29.5-133.5C1229.4,257.9,1302.8,217.8,1345.9,262.3z"/>
			</g>
			<g>
				<path class="st1" d="M1312.6,463.2c-23.9,0-47.6-2.9-63.9-9.8c-33.4-14.2-44.2-59.9-33.1-139.8c4.5-32.7,29.5-61.8,62.1-72.4
					c27-8.8,53.4-2.7,72.4,16.9c2.1,2.1,37.6,37.7,60.7,88.1c30,65.5-3.6,94.8-14.6,102.2C1383.4,457,1347.8,463.2,1312.6,463.2z
					 M1301.5,249.3c-6.5,0-13.2,1.1-20,3.3c-27.9,9.1-50.1,34.9-54,62.7c-4.7,33.4-5.4,59.7-2.3,80.2c3.8,25.1,13,40.4,28.2,46.9
					c16,6.8,44,9.9,74.9,8.3c27.4-1.4,52.6-6.5,61.3-12.3c9-6.1,36.5-30.3,10.4-87.2c-22.4-48.9-57.9-84.3-58.3-84.6l-0.1-0.1
					C1330.6,255.2,1316.6,249.3,1301.5,249.3z"/>
			</g>
		</g>
	</g>
	<g id="kappa_x5F_frontarm">
		<g>
			<g>
				<g>
					<path class="st10" d="M1248.8,334.3c-3.6,30.6-28.7,41.4-57.8,38c-29.1-3.4-47.9-28.4-44.4-59s27.4-48.4,56.5-45
						S1252.3,303.8,1248.8,334.3z"/>
				</g>
				<g>
					<path class="st1" d="M1201.1,379c-3.5,0-7.1-0.2-10.8-0.6c-32.2-3.8-53.6-32-49.6-65.6c1.9-16.2,9.3-30.2,20.9-39.2
						c11.4-8.9,26.4-12.8,42.2-11c15.6,1.8,29.6,10.8,39.4,25.4c9.3,13.8,13.5,31,11.6,47.2C1251.5,362.8,1231.3,379,1201.1,379z
						 M1196.1,274c-23.2,0-40.8,15.8-43.6,40.1c-3.2,27.3,13.3,49.3,39.1,52.3c14,1.6,47.2,1.7,51.2-32.8
						c1.6-13.4-1.9-27.7-9.6-39.1c-7.8-11.6-18.7-18.8-30.8-20.2C1200.3,274.1,1198.2,274,1196.1,274z"/>
				</g>
			</g>
			<g>
				<g>
					<path class="st1" d="M1243.9,333.4c0,0-9.8-4.2-15.7-10c-5.8-5.8-20.9-9-31.5-1.6c-9.6,6.7-14.8,22.7-4.8,38.6
						s35.3,22.3,64.8,14.7C1286.2,367.4,1243.9,333.4,1243.9,333.4z"/>
				</g>
			</g>
			<g>
				<g>
					<path class="st10" d="M1226.2,348.8c-2.2,24.6,22.7,39,55.8,44.7s62.5-8.5,66.6-32.7s-17.4-50.1-45.3-53.5
						C1264.6,302.6,1228.5,324.3,1226.2,348.8z"/>
				</g>
				<g>
					<path class="st1" d="M1296.5,400.7c-5.1,0-10.3-0.4-15.5-1.3c-40.9-7.1-63.1-25.7-60.7-51.2l0,0c1-10.6,7.3-21.1,17.7-29.5
						c16.9-13.6,42.2-20.2,66.1-17.3c16.1,2,31,10.7,40.8,23.8c8.4,11.3,11.9,24.3,9.7,36.6c-2.3,13.6-11.5,24.9-25.8,31.9
						C1319.3,398.4,1308.2,400.7,1296.5,400.7z M1232.2,349.3c-2.4,26.2,34.7,35.5,50.8,38.3c14.8,2.5,29.2,0.9,40.5-4.6
						c10.7-5.2,17.5-13.4,19.2-23.2c1.6-9-1.1-18.8-7.5-27.4c-7.7-10.4-19.9-17.5-32.6-19.1c-20.8-2.5-42.7,3.1-57.1,14.7
						C1237.6,334.4,1232.9,342,1232.2,349.3L1232.2,349.3z"/>
				</g>
			</g>
		</g>
	</g>
	<g id="kappa_x5F_head">
		<g>
			<g>
				<g>
					<g>
						<path class="st7" d="M1384.7,149.8c3.1-38.6,20.9-73.5,67.6-64.6c21.9,4.2,38.6,35.9,35.5,74.5s-19.9,69.2-41.9,70.8
							C1387.3,234.8,1381.6,188.3,1384.7,149.8z"/>
					</g>
				</g>
			</g>
			<g>
				<g>
					<path class="st1" d="M1452.9,79.3c-19.2-3.6-35.3-0.6-47.9,9c-19.3,14.8-25.7,41.1-27.3,61c-2.7,34.3,3.4,57.7,17.7,72
						c10.2,10.2,24.5,15.3,42.6,15.3c2.6,0,5.2-0.1,7.9-0.3c24.5-1.9,44.1-33.2,47.5-76.2C1496.5,119.7,1478.8,84.2,1452.9,79.3z
						 M1480.7,159.1c-2.8,35.7-18.3,63.5-35.9,64.9c-18.1,1.4-31.8-2.5-40.7-11.4c-11.6-11.6-16-32-13.6-62.3
						c1.4-17.2,6.3-40.2,22-52.2c6.9-5.2,15.3-7.9,25.3-7.9c4,0,8.2,0.4,12.7,1.3C1467.4,94.7,1483.8,121.4,1480.7,159.1z"/>
				</g>
			</g>
			<g>
				<g>
					<g>
						<path class="st10" d="M1447.4,137c0,81.6-32,143.2-151,143.2c-123.8,0-152.3-64.8-151-146.4c1.2-78.5,32.4-135.8,151-138.4
							C1409.4-7.1,1447.4,55.3,1447.4,137z"/>
					</g>
				</g>
			</g>
			<g>
				<g>
					<path class="st1" d="M1430.4,51.4c-16.7-26.7-43.7-43.8-73.8-51.6c-38.6-9.9-83-8.5-121.4,1.9c-29.1,7.9-55.8,23.7-72.2,49.6
						c-15.4,24.2-20.2,53.6-21,81.8c-0.8,29.1,2,59.2,14.5,85.9c31.1,66.7,117.5,74.7,181.7,65.2c31.2-4.6,62.7-16.9,83.4-41.6
						c18.8-22.4,26.9-50.9,29.5-79.6c0.7-7.8,1-15.6,1-23.4C1451.9,109.3,1446.8,77.6,1430.4,51.4z M1423,218.9
						c-13.5,24.3-36.4,39.8-62.7,47.5c-36.3,10.7-78.4,11-115.3,3c-26.6-5.7-52.5-17.9-68.6-40.6c-15-21.3-20.4-47.6-21.7-73.2
						c-1.4-27.2,0.1-56,10.4-81.5c24.9-62.2,102.6-72,161.2-66.6c33.4,3.1,67.4,15.2,88.3,42.7c19.3,25.4,24.7,58.3,24.8,89.5
						C1439.4,166.7,1436.3,194.9,1423,218.9z"/>
				</g>
			</g>
			<g>
				<g>
					<g>
						<path class="st1" d="M1411.2,76.3c-10.6-18.1-27.8-30.2-47.5-35.8c-25.3-7.1-54.8-6.1-80,1.3c-20.1,5.8-38.1,17.5-49.4,35.8
							c-11.2,18-14.8,40-15.4,61c-0.6,21.6,1.9,44.1,11.8,63.5c22.9,44.8,80.5,51.2,124.2,43.2c22.4-4.1,43.4-15,55.9-35.1
							c12.5-20.2,14.8-45.4,14.9-68.8C1425.6,119.1,1422.5,95.7,1411.2,76.3z"/>
					</g>
				</g>
			</g>
			<g>
				<g>
					<g>
						<circle class="st0" cx="1276.6" cy="132.1" r="23.2"/>
					</g>
				</g>
			</g>
			<g>
				<g>
					<g>
						<circle class="st0" cx="1384.4" cy="132.1" r="22.1"/>
					</g>
				</g>
			</g>
			<g>
				<g>
					<g>
						<g>
							<path class="st0" d="M1310.9,153.3c7,23.1,38.7,23.1,45.7,0c1.5-5-6.3-7.1-7.8-2.2c-4.7,15.4-25.5,15.4-30.1,0
								C1317.2,146.2,1309.4,148.3,1310.9,153.3L1310.9,153.3z"/>
						</g>
					</g>
				</g>
			</g>
			<g>
				<g>
					<g>
						<path class="st7" d="M1198,152.4c-3.2-38.5-21.2-73.4-67.9-64.3c-21.9,4.2-38.4,36.1-35.2,74.6s22.6,69.8,44.5,71.3
							C1198.1,238.2,1201.3,191,1198,152.4z"/>
					</g>
				</g>
			</g>
			<g>
				<g>
					<path class="st1" d="M1202.8,152.6c-2.4-26.6-11.7-56.7-39-67.2c-13-5-30.3-5.2-43,0.8c-12.9,6-21.1,18.9-25.9,31.7
						c-12.2,32.1-6.6,75.2,14.6,102.5c8.2,10.6,18.3,19.2,32.1,19.9c14.2,0.7,28.8-3.4,40.2-11.9
						C1204.7,211.3,1204.9,178.4,1202.8,152.6z M1182.5,210.2c-10.6,16.9-40.6,23.7-56.3,10.6c-34.9-29.2-39.5-137,25.3-126.3
						c27.3,4.5,36.4,34,38.6,57.9C1191.7,171.3,1193,193.5,1182.5,210.2z"/>
				</g>
			</g>
			<g>
				<g>
					<g>
						<g>
							<path class="st0" d="M1200.2,184.5c0,0-11.1-9.1-20.2,0.7c-13.4,14.5-1,26.9,15.8,41.7c16.8,14.7,22.9,15.6,59.5,14.2
								c42.1-1.7,51.3-9.4,52.1-18.7c0.6-7.1-4.6-12.7-20-11.9c-19.2,0.9-45.6,2.2-53.3,1.8S1209.7,192.1,1200.2,184.5z"/>
						</g>
					</g>
				</g>
				<g>
					<g>
						<g>
							<path class="st1" d="M1245.3,247c-28.6,0.8-36.7-1.5-53.2-15.9c-12.4-10.9-22.8-20.9-23.4-32.4c-0.3-6,2.1-11.9,7.2-17.4
								c10-10.8,22.6-5.6,27.9-1.2c3.2,2.6,7.1,6.4,11.2,10.3c5.6,5.5,16.1,15.6,19.6,16.1c7.9,0.4,38.2-1.1,52.7-1.8
								c10.2-0.5,17.5,1.5,21.9,6c3,3.2,4.4,7.3,4,12c-1.3,15.4-18,22.3-57.6,23.9C1251.8,246.8,1248.4,246.9,1245.3,247z
								 M1189.7,186.1c-1.8,0-3.8,1-5.6,2.9c-3,3.2-4.3,6.2-4.2,9.1c0.4,7.1,9.5,15.6,19.5,24.5c15.1,13.3,19.3,14.2,55.6,12.8
								c30.3-1.2,46.3-5.3,47-13c0.2-1.8-0.7-3.2-1.1-3.7c-0.9-0.9-4-3-13.2-2.6c-23.6,1.1-46.4,2.1-53.9,1.8
								c-6.9-0.4-14.7-7.5-26.8-19.2c-3.9-3.8-7.6-7.4-10.4-9.7l0,0C1195.8,188.3,1193,186,1189.7,186.1z"/>
						</g>
					</g>
				</g>
			</g>
			<g>
				<g>
					<g>
						
							<ellipse transform="matrix(-0.9987 5.011065e-002 -5.011065e-002 -0.9987 2244.8364 264.2806)" class="st0" cx="1119.1" cy="160.3" rx="9.1" ry="17.9"/>
					</g>
				</g>
			</g>
			<g>
				<g>
					<g>
						<path class="st0" d="M1159,160.2c-0.7-17.7-3.8-35.9-14-50.9c-6.2-9.1-16.4-12.2-22.8-1.6c-0.6,1-1.3,2.9-0.7,3.5
							c0.3,0.4,0.8,0.3,1.5-0.1c1.5-0.8,12-9.6,20.9,17.1c9,26.8,7.7,57.8-1.1,73.1c-6.8,11.7-17.6,6.4-17.6,6.4
							c-4.2-1.4-3.2,0.5-2,2.2c7.3,10.1,19,6.9,25.8-2.1C1158.2,195.8,1159.6,175.2,1159,160.2z"/>
					</g>
				</g>
			</g>
			<g>
				<g>
					<g>
						
							<ellipse transform="matrix(-0.7071 -0.7071 0.7071 -0.7071 2006.3336 936.9669)" class="st0" cx="1197.2" cy="53" rx="9.2" ry="22.5"/>
					</g>
				</g>
			</g>
			<g>
				<g>
					<g>
						
							<ellipse transform="matrix(-0.4368 -0.8996 0.8996 -0.4368 1737.1088 1148.1157)" class="st0" cx="1228" cy="30.3" rx="5.2" ry="10.3"/>
					</g>
				</g>
			</g>
		</g>
	</g>
	<g id="zzz">
		<g>
			<path class="st1" d="M908.2,592.3l16.9-19.6H912c-2.5,0-4.2-1.7-4.2-4.2s1.7-4.2,4.2-4.2h21.7c3,0,5.1,2.1,5.1,5.1
				c0,1.3-0.5,2.6-1.4,3.6l-17,19.7h14.3c2.4,0,4.2,1.7,4.2,4.2s-1.7,4.2-4.2,4.2h-22.8c-3,0-5.1-2.1-5.1-5
				C906.7,594.7,907.4,593.2,908.2,592.3z"/>
		</g>
		<g>
			<path class="st1" d="M950.9,616.2l10.8-11.3h-7.6c-2.3,0-3.9-1.6-3.9-3.9c0-2.3,1.6-3.9,3.9-3.9h16.1c2.7,0,4.7,1.9,4.7,4.6
				c0,1.3-0.7,2.8-1.6,3.7l-10.7,11.2h8.4c2.3,0,3.9,1.6,3.9,3.9c0,2.3-1.6,3.9-3.9,3.9h-16.9c-2.8,0-4.6-1.8-4.6-4.6
				C949.4,618.4,950,617.1,950.9,616.2z"/>
		</g>
	</g>
	<g id="keyboard">
		<g>
			<g>
				<g>
					<g>
						<g>
							<path class="st4" d="M1417.1,367c-4.5,0-8.2-3.5-8.5-7.9l-0.7-10.5c-0.3-4.7,3.2-8.7,7.9-9.1l14.5-1c0.2,0,0.4,0,0.6,0
								c4.5,0,8.2,3.5,8.5,7.9l0.7,10.5c0.3,4.7-3.2,8.7-7.9,9.1l-14.5,1C1417.5,367,1417.3,367,1417.1,367z"/>
						</g>
					</g>
				</g>
				<g>
					<g>
						<g>
							<path class="st1" d="M1430.9,342c2.6,0,4.8,2,5,4.7l0.7,10.5c0.2,2.7-1.9,5.1-4.7,5.3l-14.5,1c-0.1,0-0.2,0-0.3,0
								c-2.6,0-4.8-2-5-4.7l-0.7-10.5c-0.2-2.7,1.9-5.1,4.7-5.3l14.5-1C1430.7,342,1430.8,342,1430.9,342 M1430.9,335
								c-0.3,0-0.5,0-0.8,0l-14.5,1c-3.2,0.2-6.1,1.7-8.2,4.1s-3.2,5.5-2.9,8.7l0.7,10.5c0.4,6.3,5.7,11.2,12,11.2
								c0.3,0,0.5,0,0.8,0l14.5-1c3.2-0.2,6.1-1.7,8.2-4.1s3.2-5.5,2.9-8.7l-0.7-10.5C1442.5,339.9,1437.2,335,1430.9,335
								L1430.9,335z"/>
						</g>
					</g>
				</g>
			</g>
			<g>
				<g>
					<g>
						<g>
							<path class="st4" d="M1629.4,353.5c-4.5,0-8.2-3.5-8.5-7.9l-0.7-10.5c-0.2-2.3,0.6-4.4,2.1-6.2c1.5-1.7,3.6-2.7,5.8-2.9
								l14.5-1c0.2,0,0.4,0,0.6,0c4.5,0,8.2,3.5,8.5,7.9l0.7,10.5c0.2,2.3-0.6,4.4-2.1,6.2c-1.5,1.7-3.6,2.7-5.8,2.9l-14.5,1
								C1629.8,353.5,1629.6,353.5,1629.4,353.5z"/>
						</g>
					</g>
				</g>
				<g>
					<g>
						<g>
							<path class="st1" d="M1643.2,328.5c2.6,0,4.8,2,5,4.7l0.7,10.5c0.2,2.7-1.9,5.1-4.7,5.3l-14.5,1c-0.1,0-0.2,0-0.3,0
								c-2.6,0-4.8-2-5-4.7l-0.7-10.5c-0.2-2.7,1.9-5.1,4.7-5.3l14.5-1C1643,328.5,1643.1,328.5,1643.2,328.5 M1643.2,321.5
								c-0.3,0-0.5,0-0.8,0l-14.5,1c-3.2,0.2-6.1,1.7-8.2,4.1s-3.2,5.5-2.9,8.7l0.7,10.5c0.4,6.3,5.7,11.2,12,11.2
								c0.3,0,0.5,0,0.8,0l14.5-1c3.2-0.2,6.1-1.7,8.2-4.1s3.2-5.5,2.9-8.7l-0.7-10.5C1654.8,326.4,1649.5,321.5,1643.2,321.5
								L1643.2,321.5z"/>
						</g>
					</g>
				</g>
			</g>
			<g>
				<g>
					<g>
						<g>
							<path class="st4" d="M1459.3,364c-4.5,0-8.2-3.5-8.5-7.9l-0.7-10.5c-0.3-4.7,3.2-8.7,7.9-9.1l14.5-1c0.2,0,0.4,0,0.6,0
								c4.5,0,8.2,3.5,8.5,7.9l0.7,10.5c0.3,4.7-3.2,8.7-7.9,9.1l-14.5,1C1459.7,364,1459.5,364,1459.3,364z"/>
						</g>
					</g>
				</g>
				<g>
					<g>
						<g>
							<path class="st1" d="M1473.1,339c2.6,0,4.8,2,5,4.7l0.7,10.5c0.2,2.7-1.9,5.1-4.7,5.3l-14.5,1c-0.1,0-0.2,0-0.3,0
								c-2.6,0-4.8-2-5-4.7l-0.7-10.5c-0.2-2.7,1.9-5.1,4.7-5.3l14.5-1C1472.9,339,1473,339,1473.1,339 M1473.1,332L1473.1,332
								L1473.1,332c-0.3,0-0.5,0-0.8,0l-14.5,1c-6.6,0.4-11.6,6.2-11.2,12.8l0.7,10.5c0.4,6.3,5.7,11.2,12,11.2c0.3,0,0.5,0,0.8,0
								l14.5-1c6.6-0.4,11.6-6.2,11.2-12.8l-0.7-10.5C1484.7,336.9,1479.4,332,1473.1,332L1473.1,332z"/>
						</g>
					</g>
				</g>
			</g>
			<g>
				<g>
					<g>
						<g>
							<path class="st8" d="M1396.7,378.9c-3.8,0-7-3.1-7-7v-8.8c0-3.9,3.1-7.2,7-7.4l270.5-17.4c3.8-0.2,7,2.7,7,6.6v25.9
								c0,3.8-3.2,7-7,7L1396.7,378.9z"/>
						</g>
					</g>
				</g>
				<g>
					<g>
						<g>
							<path class="st1" d="M1396.7,384.9c-3.5,0-6.7-1.3-9.2-3.8s-3.8-5.7-3.8-9.2v-8.8c0-7,5.7-13,12.6-13.4l270.5-17.4
								c3.5-0.2,6.9,1,9.4,3.3c2.5,2.4,3.9,5.7,3.9,9.2v25.9c0,7.2-5.8,13-13,13L1396.7,384.9L1396.7,384.9z M1667.7,344.3
								L1667.7,344.3l-270.6,17.4c-0.7,0-1.4,0.8-1.4,1.5v8.8c0,0.3,0.2,0.6,0.3,0.7c0.1,0.1,0.4,0.3,0.7,0.3l0,0l270.5-1.1
								c0.5,0,1-0.5,1-1v-26c0-0.2-0.1-0.3-0.2-0.4C1668,344.4,1667.9,344.3,1667.7,344.3z"/>
						</g>
					</g>
				</g>
			</g>
		</g>
	</g>
	<g id="hand">
		<g>
			<g>
				<g>
					<path class="st10" d="M1377.3,369.7c0,0,10.3,4.3,22.3,2.7c12.1-1.6,20.2-10.8,8.7-25.1s-30.4-25.7-53-26.4
						c-22.5-0.8-37.9,7.9-44.1,17c-6.1,9.1-8,19.9-5.8,27.7c2.1,7.8,19.3,11.4,39.1,10.9c19.8-0.5,27.7-1.2,27.7-1.2L1377.3,369.7z"
						/>
				</g>
			</g>
			<g>
				<g>
					<path class="st1" d="M1417.8,352.2c-8.1-23.1-33.7-33.9-56.7-36.8c-21.6-2.7-46.4,5.1-57.2,25c-6.4,11.8-7,27.9,5.7,35.8
						c5.4,3.4,12,4,18.3,4.1c8.2,0.1,16.3-0.3,24.4,0.4c7.4,0.6,14.8,2.1,21.7-1.5c1.8-0.9,3.4-2.2,4.7-3.7
						c10.9,2.2,24.9,4.5,34.3-2.5C1419.7,368.1,1420.4,359.7,1417.8,352.2z M1407,363.1c0,0-0.9,0.8-0.6,0.7c-0.1,0.1-1.4,0.8-1.9,1
						c-1.4,0.6-3.2,0.9-4.9,1.1c-5.6,0.6-11.4-0.2-17-1.2c-0.1-14.1-15.6-23.4-27.1-27.7c-6.9-2.6-10.2,6.3-3.3,8.9
						c6.8,2.5,18.9,10.5,18.9,19.1c0,2.1-0.9,3.4-3.2,4.4c-4.4,1.9-9.8,0.4-14.3,0c-6.7-0.6-13.4-0.5-20.1-0.4
						c-4.9,0.1-10.3,0.4-15.1-1.1c-10.3-3.4-8.4-15.4-3.8-22.8c8.6-14,26.6-20.3,42.4-18.5c17.3,2,38,8.8,47.3,24.1
						c1.7,2.8,2.7,4.8,3.3,7.7C1408,360.3,1407.9,361.9,1407,363.1z"/>
				</g>
			</g>
		</g>
	</g>
	<g id="table">
		<g>
			<g>
				<g>
					<g>
						<g>
							<g>
								<path class="st11" d="M2011.3,732c-3.7,0-6.7-3-6.7-6.7v-4.2c0-3.7,3-6.7,6.7-6.7h13.5c3.7,0,6.7,3,6.7,6.7v4.2
									c0,3.7-3,6.7-6.7,6.7H2011.3z"/>
							</g>
						</g>
					</g>
					<g>
						<g>
							<g>
								<path class="st1" d="M2024.8,718.2c1.6,0,3,1.3,3,3v4.2c0,1.6-1.3,3-3,3h-13.5c-1.6,0-3-1.3-3-3v-4.2c0-1.6,1.3-3,3-3
									H2024.8 M2024.8,710.8h-13.5c-5.7,0-10.3,4.6-10.3,10.3v4.2c0,5.7,4.6,10.3,10.3,10.3h13.5c5.7,0,10.3-4.6,10.3-10.3v-4.2
									C2035.2,715.5,2030.5,710.8,2024.8,710.8L2024.8,710.8z"/>
							</g>
						</g>
					</g>
				</g>
				<g>
					<g>
						<g>
							<path class="st12" d="M2028.8,718.2h-21.5c-2.8,0-5-2.2-5-5V478.9c0-2.8,2.2-5,5-5h21.5c2.8,0,5,2.2,5,5v234.3
								C2033.8,716,2031.6,718.2,2028.8,718.2z"/>
						</g>
					</g>
					<g>
						<g>
							<path class="st1" d="M2028.8,724.2h-21.5c-6.1,0-11-4.9-11-11V478.9c0-6.1,4.9-11,11-11h21.5c6.1,0,11,4.9,11,11v234.3
								C2039.8,719.3,2034.9,724.2,2028.8,724.2z M2008.3,712.2h19.5V479.9h-19.5V712.2z"/>
						</g>
					</g>
				</g>
			</g>
			<g>
				<g>
					<g>
						<g>
							<path class="st0" d="M1390.7,732c-3.7,0-6.7-3-6.7-6.7v-4.2c0-3.7,3-6.7,6.7-6.7h13.5c3.7,0,6.7,3,6.7,6.7v4.2
								c0,3.7-3,6.7-6.7,6.7H1390.7z"/>
						</g>
					</g>
				</g>
				<g>
					<g>
						<g>
							<path class="st1" d="M1404.3,718.2c1.6,0,3,1.3,3,3v4.2c0,1.6-1.3,3-3,3h-13.5c-1.6,0-3-1.3-3-3v-4.2c0-1.6,1.3-3,3-3H1404.3
								 M1404.3,710.8h-13.5c-5.7,0-10.3,4.6-10.3,10.3v4.2c0,5.7,4.6,10.3,10.3,10.3h13.5c5.7,0,10.3-4.6,10.3-10.3v-4.2
								C1414.6,715.5,1410,710.8,1404.3,710.8L1404.3,710.8z"/>
						</g>
					</g>
				</g>
			</g>
			<g>
				<g>
					<g>
						<path class="st0" d="M1408.2,718.2h-21.5c-2.8,0-5-2.2-5-5V478.9c0-2.8,2.2-5,5-5h21.5c2.8,0,5,2.2,5,5v234.3
							C1413.2,716,1411,718.2,1408.2,718.2z"/>
					</g>
				</g>
				<g>
					<g>
						<path class="st1" d="M1408.2,724.2h-21.5c-6.1,0-11-4.9-11-11V478.9c0-6.1,4.9-11,11-11h21.5c6.1,0,11,4.9,11,11v234.3
							C1419.2,719.3,1414.3,724.2,1408.2,724.2z M1387.7,712.2h19.5V479.9h-19.5V712.2z"/>
					</g>
				</g>
			</g>
			<g>
				<g>
					<g>
						<g>
							<path class="st11" d="M1390.7,732c-3.7,0-6.7-3-6.7-6.7v-4.2c0-3.7,3-6.7,6.7-6.7h13.5c3.7,0,6.7,3,6.7,6.7v4.2
								c0,3.7-3,6.7-6.7,6.7H1390.7z"/>
						</g>
					</g>
				</g>
				<g>
					<g>
						<g>
							<path class="st1" d="M1404.3,718.2c1.6,0,3,1.3,3,3v4.2c0,1.6-1.3,3-3,3h-13.5c-1.6,0-3-1.3-3-3v-4.2c0-1.6,1.3-3,3-3H1404.3
								 M1404.3,710.8h-13.5c-5.7,0-10.3,4.6-10.3,10.3v4.2c0,5.7,4.6,10.3,10.3,10.3h13.5c5.7,0,10.3-4.6,10.3-10.3v-4.2
								C1414.6,715.5,1410,710.8,1404.3,710.8L1404.3,710.8z"/>
						</g>
					</g>
				</g>
			</g>
			<g>
				<g>
					<g>
						<g>
							<path class="st11" d="M1228.5,732c-3.7,0-6.7-3-6.7-6.7v-4.2c0-3.7,3-6.7,6.7-6.7h13.5c3.7,0,6.7,3,6.7,6.7v4.2
								c0,3.7-3,6.7-6.7,6.7H1228.5z"/>
						</g>
					</g>
				</g>
				<g>
					<g>
						<g>
							<path class="st1" d="M1242.1,718.2c1.6,0,3,1.3,3,3v4.2c0,1.6-1.3,3-3,3h-13.5c-1.6,0-3-1.3-3-3v-4.2c0-1.6,1.3-3,3-3H1242.1
								 M1242.1,710.8h-13.5c-5.7,0-10.3,4.6-10.3,10.3v4.2c0,5.7,4.6,10.3,10.3,10.3h13.5c5.7,0,10.3-4.6,10.3-10.3v-4.2
								C1252.4,715.5,1247.8,710.8,1242.1,710.8L1242.1,710.8z"/>
						</g>
					</g>
				</g>
			</g>
			<g>
				<g>
					<g>
						<path class="st11" d="M2281.9,435.9h-1114c-5.5,0-10-4.5-10-10v-36c0-5.5,4.5-10,10-10h1114c5.5,0,10,4.5,10,10v36
							C2291.9,431.4,2287.4,435.9,2281.9,435.9z"/>
					</g>
				</g>
				<g>
					<g>
						<path class="st1" d="M2281.9,441.9h-1114c-8.8,0-16-7.2-16-16v-36c0-8.8,7.2-16,16-16h1114c8.8,0,16,7.2,16,16v36
							C2297.9,434.7,2290.7,441.9,2281.9,441.9z M1167.9,385.9c-2.2,0-4,1.8-4,4v36c0,2.2,1.8,4,4,4h1114c2.2,0,4-1.8,4-4v-36
							c0-2.2-1.8-4-4-4H1167.9z"/>
					</g>
				</g>
			</g>
			<g>
				<g>
					<g>
						<path class="st13" d="M2256,473.9H1197.8c-4.9,0-8.9-4-8.9-8.9v-20.1c0-4.9,4-8.9,8.9-8.9h1058.1c4.9,0,8.9,4,8.9,8.9v20
							C2264.9,469.9,2260.9,473.9,2256,473.9z"/>
					</g>
				</g>
				<g>
					<g>
						<path class="st1" d="M2256,479.9H1197.8c-8.2,0-14.9-6.7-14.9-14.9v-20.1c0-8.2,6.7-14.9,14.9-14.9h1058.1
							c8.2,0,14.9,6.7,14.9,14.9v20C2270.9,473.2,2264.2,479.9,2256,479.9z M1197.8,441.9c-1.6,0-2.9,1.3-2.9,2.9v20.1
							c0,1.6,1.3,2.9,2.9,2.9h1058.1c1.6,0,2.9-1.3,2.9-2.9v-20.1c0-1.6-1.3-2.9-2.9-2.9H1197.8z"/>
					</g>
				</g>
			</g>
			<g>
				<g>
					<g>
						<path class="st12" d="M1246.1,718.2h-21.5c-2.8,0-5-2.2-5-5V478.9c0-2.8,2.2-5,5-5h21.5c2.8,0,5,2.2,5,5v234.3
							C1251.1,716,1248.8,718.2,1246.1,718.2z"/>
					</g>
				</g>
				<g>
					<g>
						<path class="st1" d="M1246.1,724.2h-21.5c-6.1,0-11-4.9-11-11V478.9c0-6.1,4.9-11,11-11h21.5c6.1,0,11,4.9,11,11v234.3
							C1257.1,719.3,1252.1,724.2,1246.1,724.2z M1225.6,712.2h19.5V479.9h-19.5V712.2z"/>
					</g>
				</g>
			</g>
			<g>
				<g>
					<g>
						<path class="st12" d="M1408.2,718.2h-21.5c-2.8,0-5-2.2-5-5V478.9c0-2.8,2.2-5,5-5h21.5c2.8,0,5,2.2,5,5v234.3
							C1413.2,716,1411,718.2,1408.2,718.2z"/>
					</g>
				</g>
				<g>
					<g>
						<path class="st1" d="M1408.2,724.2h-21.5c-6.1,0-11-4.9-11-11V478.9c0-6.1,4.9-11,11-11h21.5c6.1,0,11,4.9,11,11v234.3
							C1419.2,719.3,1414.3,724.2,1408.2,724.2z M1387.7,712.2h19.5V479.9h-19.5V712.2z"/>
					</g>
				</g>
			</g>
			<g>
				<g>
					<g>
						<g>
							<path class="st11" d="M2203.9,732c-3.7,0-6.7-3-6.7-6.7v-4.2c0-3.7,3-6.7,6.7-6.7h13.5c3.7,0,6.7,3,6.7,6.7v4.2
								c0,3.7-3,6.7-6.7,6.7H2203.9z"/>
						</g>
					</g>
				</g>
				<g>
					<g>
						<g>
							<path class="st1" d="M2217.4,718.2c1.6,0,3,1.3,3,3v4.2c0,1.6-1.3,3-3,3h-13.5c-1.6,0-3-1.3-3-3v-4.2c0-1.6,1.3-3,3-3H2217.4
								 M2217.4,710.8h-13.5c-5.7,0-10.3,4.6-10.3,10.3v4.2c0,5.7,4.6,10.3,10.3,10.3h13.5c5.7,0,10.3-4.6,10.3-10.3v-4.2
								C2227.7,715.5,2223.1,710.8,2217.4,710.8L2217.4,710.8z"/>
						</g>
					</g>
				</g>
			</g>
			<g>
				<g>
					<g>
						<path class="st12" d="M2221.4,718.2h-21.5c-2.8,0-5-2.2-5-5V478.9c0-2.8,2.2-5,5-5h21.5c2.8,0,5,2.2,5,5v234.3
							C2226.4,716,2224.1,718.2,2221.4,718.2z"/>
					</g>
				</g>
				<g>
					<g>
						<path class="st1" d="M2221.4,724.2h-21.5c-6.1,0-11-4.9-11-11V478.9c0-6.1,4.9-11,11-11h21.5c6.1,0,11,4.9,11,11v234.3
							C2232.4,719.3,2227.4,724.2,2221.4,724.2z M2200.9,712.2h19.5V479.9h-19.5V712.2z"/>
					</g>
				</g>
			</g>
			<g>
				<g>
					<g>
						<rect x="1395.2" y="435.9" class="st1" width="12" height="38"/>
					</g>
				</g>
			</g>
			<g>
				<g>
					<g>
						<rect x="1368.2" y="378.2" class="st1" width="12" height="57.7"/>
					</g>
				</g>
			</g>
		</g>
	</g>
	<g id="monitor2">
		<g>
			<g>
				<g>
					<g>
						<g>
							<path class="st8" d="M1956.3,299.7c-1.8,0-4.2-0.1-5.9-0.3l-6.7-0.7c-4.7-0.5-8.2-4.6-8-9.2l8.1-246.5
								c0.2-4.7,4.1-8.6,8.9-8.6h7.5c1.8,0,4.6,0.2,6.4,0.5L2198,68.2c4.6,0.7,8,4.8,7.8,9.4l-9,211c-0.2,4.7-4.1,8.5-8.8,8.6
								L1956.3,299.7z"/>
						</g>
					</g>
				</g>
				<g>
					<g>
						<g>
							<path class="st1" d="M1960.1,40.4c1.5,0,4,0.2,5.5,0.4L2197,74.1c1.5,0.2,2.7,1.6,2.6,3.2l-9,211c-0.1,1.5-1.4,2.8-2.9,2.8
								l-231.2,2.7c-0.1,0-0.2,0-0.3,0c-1.5,0-3.8-0.1-5.2-0.3l-6.7-0.7c-1.5-0.2-2.7-1.5-2.7-3.1l8.1-246.6
								c0.1-1.5,1.3-2.8,2.9-2.8h7.5 M1960.1,28.4h-7.5c-7.9,0-14.6,6.5-14.9,14.4l-8.1,246.6c-0.3,7.8,5.6,14.6,13.4,15.4l6.7,0.7
								c1.8,0.2,4.5,0.3,6.5,0.3c0.2,0,0.3,0,0.5,0l231.2-2.7c7.9-0.1,14.4-6.4,14.8-14.3l9-211c0.3-7.6-5.3-14.5-12.9-15.6
								l-231.5-33.3C1965.3,28.6,1962.2,28.4,1960.1,28.4L1960.1,28.4z"/>
						</g>
					</g>
				</g>
			</g>
			<g>
				<g>
					<g>
						<g>
							<path class="st5" d="M2054.5,360.4l-4.3-157.7c0-1.5,0.7-3.7,1.7-4.9l6.6-8.1c1-1.2,3-2,4.5-1.8l61.9,7.1
								c1.5,0.2,2.8,1.6,2.9,3.1l6.8,160.6"/>
						</g>
					</g>
				</g>
				<g>
					<g>
						<g>
							<path class="st1" d="M2049,360.6l-4.3-157.7c-0.1-2.8,1.1-6.3,2.9-8.6l6.6-8.1c2.2-2.7,6-4.3,9.4-3.9l61.9,7.1
								c4.3,0.5,7.6,4.1,7.8,8.4l6.8,160.6l-11.1,0.5l-6.7-158.7l-59.7-6.8l0,0l-6.4,7.9c-0.2,0.2-0.4,1-0.4,1.3l4.3,157.7
								L2049,360.6z M2062.5,193.4L2062.5,193.4L2062.5,193.4z M2062.7,193.3L2062.7,193.3L2062.7,193.3z"/>
						</g>
					</g>
				</g>
			</g>
			<g>
				<g>
					<g>
						
							<rect x="1981.2" y="269.8" transform="matrix(2.805433e-002 0.9996 -0.9996 2.805433e-002 2280.7012 -1800.603)" class="st1" width="170.2" height="5.5"/>
					</g>
				</g>
			</g>
			<g>
				<g>
					<g>
						<path class="st5" d="M2177.7,379.9h-158.9c-2,0-3.7-1.7-3.7-3.7v-14.3c0-2,1.7-3.7,3.7-3.7h158.9c2,0,3.7,1.7,3.7,3.7v14.3
							C2181.4,378.2,2179.7,379.9,2177.7,379.9z"/>
					</g>
				</g>
				<g>
					<g>
						<path class="st1" d="M2177.7,385.4h-158.9c-5.1,0-9.2-4.1-9.2-9.2v-14.3c0-5.1,4.1-9.2,9.2-9.2h158.9c5.1,0,9.2,4.1,9.2,9.2
							v14.3C2186.9,381.3,2182.8,385.4,2177.7,385.4z M2020.6,374.4h155.2v-10.6h-155.2V374.4z"/>
					</g>
				</g>
			</g>
			<g>
				<g>
					<g>
						<path class="st1" d="M2150.1,262.6c0.1,0,0.1,0,0.2,0c3,0.1,5.2,4.1,5,8.9c-0.2,4.7-2.8,8.3-5.7,8.3c-0.1,0-0.1,0-0.2,0
							c-3-0.1-5.2-4.1-5-8.9C2144.7,266.3,2147.2,262.6,2150.1,262.6 M2150.1,256.6L2150.1,256.6c-6.3,0-11.3,6-11.7,14.1
							c-0.2,3.4,0.6,6.8,2,9.4c2,3.5,5.1,5.6,8.6,5.8c0.2,0,0.3,0,0.5,0c6.2,0,11.3-6,11.7-14.1c0.4-8.2-4.3-14.9-10.7-15.2
							C2150.5,256.6,2150.3,256.6,2150.1,256.6L2150.1,256.6z"/>
					</g>
				</g>
			</g>
			<g>
				<g>
					<g>
						<path class="st1" d="M2174.9,263.2c0.1,0,0.1,0,0.2,0c2.8,0.1,4.8,3.8,4.6,8.2c-0.2,4.3-2.5,7.7-5.3,7.7c-0.1,0-0.1,0-0.2,0
							c-2.8-0.1-4.8-3.8-4.6-8.2C2169.9,266.7,2172.2,263.2,2174.9,263.2 M2174.9,257.7L2174.9,257.7c-5.8,0-10.4,5.6-10.8,13
							c-0.2,3.2,0.5,6.3,1.9,8.7c1.8,3.2,4.7,5.2,8,5.3c0.1,0,0.3,0,0.4,0c5.8,0,10.4-5.6,10.8-13c0.2-3.2-0.5-6.3-1.9-8.7
							c-1.8-3.2-4.7-5.2-8-5.3C2175.2,257.7,2175,257.7,2174.9,257.7L2174.9,257.7z"/>
					</g>
				</g>
			</g>
			<g>
				<g>
					<g>
						
							<rect x="1951.2" y="36.8" transform="matrix(0.9994 3.588865e-002 -3.588865e-002 0.9994 7.2743 -70.0631)" class="st1" width="8" height="261.6"/>
					</g>
				</g>
			</g>
		</g>
	</g>
	<g id="monitor1">
		<g>
			<g>
				<g>
					<g>
						<path class="st8" d="M1523.9,301.4c-5.5,0-10-4.5-10-10v-0.2l8-246.6c0.1-5.5,4.5-9.9,10-9.9l384.6-2c5.5,0,10,4.5,10,10v0.2
							l-8,244.6c-0.1,5.5-4.5,9.9-10,9.9L1523.9,301.4L1523.9,301.4z"/>
					</g>
				</g>
			</g>
			<g>
				<g>
					<g>
						<path class="st1" d="M1916.6,38.7c2.2,0,4,1.8,4,4l-8,244.7c0,2.2-1.8,4-4,4l-384.7,4c-2.2,0-4-1.8-4-4l8-246.7
							c0-2.2,1.8-4,4-4L1916.6,38.7 M1916.6,26.7L1916.6,26.7L1916.6,26.7l-384.7,2c-8.7,0-15.8,7.1-16,15.7l-8,246.5v0.2v0.2
							c0,8.8,7.2,16,16,16h0.1h0.1l384.6-4c8.7,0,15.8-7.1,15.9-15.7l8-244.5v-0.2v-0.2C1932.6,33.9,1925.4,26.7,1916.6,26.7
							L1916.6,26.7z"/>
					</g>
				</g>
			</g>
			<g>
				<g>
					<g>
						<g>
							<path class="st5" d="M1691.6,356.6l-5.9-168c-0.1-1.6,0.6-4.2,1.4-5.6l6.6-11.2c0.8-1.4,2.9-2.6,4.5-2.6l67-0.3
								c1.7,0,3.1,1.3,3.2,3l9.8,182.7"/>
						</g>
					</g>
				</g>
				<g>
					<g>
						<g>
							<path class="st1" d="M1685.6,356.8l-5.9-168c-0.1-2.8,0.8-6.4,2.3-8.8l6.6-11.2c1.9-3.2,5.9-5.5,9.7-5.5l67-0.3l0,0
								c4.9,0,8.9,3.8,9.1,8.7l9.8,182.7l-12,0.6l-9.7-180l-63.9,0.3l-6.4,10.8c-0.3,0.5-0.6,1.8-0.6,2.3l5.9,168L1685.6,356.8z"/>
						</g>
					</g>
				</g>
			</g>
			<g>
				<g>
					<g>
						
							<rect x="1610.8" y="258.4" transform="matrix(4.159879e-002 0.9991 -0.9991 4.159879e-002 1893.3615 -1451.0991)" class="st1" width="184.5" height="6"/>
					</g>
				</g>
			</g>
			<g>
				<g>
					<g>
						
							<rect x="1533.4" y="35.8" transform="matrix(0.9993 3.796272e-002 -3.796272e-002 0.9993 7.4624 -58.244)" class="st1" width="8" height="263.2"/>
					</g>
				</g>
			</g>
			<g>
				<g>
					<g>
						<path class="st5" d="M1825,377.7h-172.1c-2.2,0-4-1.8-4-4v-15.5c0-2.2,1.8-4,4-4H1825c2.2,0,4,1.8,4,4v15.5
							C1829,375.9,1827.2,377.7,1825,377.7z"/>
					</g>
				</g>
				<g>
					<g>
						<path class="st1" d="M1825,383.7h-172.1c-5.5,0-10-4.5-10-10v-15.5c0-5.5,4.5-10,10-10H1825c5.5,0,10,4.5,10,10v15.5
							C1835,379.2,1830.5,383.7,1825,383.7z M1654.9,371.7H1823v-11.5h-168.1V371.7z"/>
					</g>
				</g>
			</g>
			<g>
				<g>
					<g>
						<path class="st1" d="M1803,266.5c4.1,0,7.4,3.3,7.4,7.4s-3.3,7.4-7.4,7.4s-7.4-3.3-7.4-7.4
							C1795.5,269.8,1798.9,266.5,1803,266.5 M1803,259.3c-8.1,0-14.6,6.6-14.6,14.6s6.6,14.6,14.6,14.6c8.1,0,14.6-6.6,14.6-14.6
							S1811,259.3,1803,259.3L1803,259.3z"/>
					</g>
				</g>
			</g>
			<g>
				<g>
					<g>
						<path class="st1" d="M1839.8,266.5c4.1,0,7.4,3.3,7.4,7.4s-3.3,7.4-7.4,7.4s-7.4-3.3-7.4-7.4
							C1832.3,269.8,1835.7,266.5,1839.8,266.5 M1839.8,259.3c-8.1,0-14.6,6.6-14.6,14.6s6.6,14.6,14.6,14.6
							c8.1,0,14.6-6.6,14.6-14.6S1847.8,259.3,1839.8,259.3L1839.8,259.3z"/>
					</g>
				</g>
			</g>
		</g>
	</g>
	<g id="front_x5F_speaker">
		<g>
			<g>
				<g>
					<path class="st3" d="M1616.8,379.3h-139.4c-2.2,0-4-1.8-4-4V255.2c0-2.2,1.8-4,4-4h139.4c2.2,0,4,1.8,4,4v120.1
						C1620.8,377.5,1619,379.3,1616.8,379.3z"/>
				</g>
			</g>
			<line class="st14" x1="1561.9" y1="253.2" x2="1475.6" y2="366.6"/>
			<polygon class="st4" points="1528.4,251.2 1473.9,322.9 1473.9,353.7 1551.2,251.2 			"/>
			<g>
				<g>
					<path class="st1" d="M1616.8,385.3h-139.4c-5.5,0-10-4.5-10-10V255.2c0-5.5,4.5-10,10-10h139.4c5.5,0,10,4.5,10,10v120.1
						C1626.8,380.8,1622.3,385.3,1616.8,385.3z M1479.4,373.3h135.4V257.2h-135.4V373.3z"/>
				</g>
			</g>
			<g>
				<g>
					<g>
						<rect x="1569.4" y="251.2" class="st1" width="8" height="126.5"/>
					</g>
				</g>
			</g>
			<g>
				<g>
					<g>
						<path class="st1" d="M1598.1,273.2c3.5,0,6.4,3.3,6.4,7.4s-2.9,7.4-6.4,7.4s-6.4-3.3-6.4-7.4
							C1591.7,276.5,1594.6,273.2,1598.1,273.2 M1598.1,266.5c-7.2,0-13.1,6.3-13.1,14.1s5.9,14.1,13.1,14.1s13.1-6.3,13.1-14.1
							S1605.3,266.5,1598.1,266.5L1598.1,266.5z"/>
					</g>
				</g>
			</g>
			<g>
				<g>
					<g>
						<path class="st1" d="M1598.1,307c3.5,0,6.4,3.3,6.4,7.4s-2.9,7.4-6.4,7.4s-6.4-3.3-6.4-7.4S1594.6,307,1598.1,307
							 M1598.1,300.3c-7.2,0-13.1,6.3-13.1,14.1c0,7.8,5.9,14.1,13.1,14.1s13.1-6.3,13.1-14.1
							C1611.2,306.7,1605.3,300.3,1598.1,300.3L1598.1,300.3z"/>
					</g>
				</g>
			</g>
		</g>
	</g>
	<g id="wires">
		<g>
			<g>
				<g>
					<path class="st1" d="M1594.4,314.4c0,19.3,0,38.5,0,57.8c0,43,0,70,0,113c0,45.7,0,91.4,0,137.1c0,26.9,0,53.8,0,80.7
						c0,1.7-0.1,3.5,0,5.2c0.9,15.3,13.5,27,28.7,27.4c17.7,0.4,35.4,0,53,0c8.2,0,16.3,0,24.5,0c3.9,0,9.5,0,11.8,3.7
						c1.8,2.9,0,6.4-1.6,8.9c-2,3.2-3.9,6.4-4.1,10.3c-0.9,15.1,16.8,14.7,27.6,14.7c35.1,0,70.2,0,105.4,0c45.8,0,91.5,0,137.3,0
						c15.3,0,30.5,0,45.8,0c10.5,0,21.2,1.1,30.2-5.6c15.2-11.3,11.7-31.8,11.7-48.4c0-22.1,0-44.3,0-66.4c0-4.4,0-8.8,0-13.2
						c0-4.8-7.5-4.8-7.5,0c0,33.9,0,67.9,0,101.8c0,10.6-4.6,20.4-15.6,23.5c-3.2,0.9-6.4,0.8-9.7,0.8c-11.5,0-22.9,0-34.4,0
						c-42.8,0-85.5,0-128.3,0c-40,0-80,0-120,0c-7.8,0-15.7,0.1-23.5,0c-3.6-0.1-9.1-0.3-11-4c-1.6-3.1,0.6-6.5,2.2-9.1
						c1.9-3,3.5-6.1,3.7-9.7c0.7-11.6-9-14.7-20.6-14.7c-19.6,0-39.2,0-58.8,0c-6,0-12.1,0.2-18.1,0c-12-0.3-21-9.6-21.3-21.6
						c-0.4-20.8,0-41.7,0-62.6c0-43,0-85.9,0-128.9c0-44.7,0-73.5,0-118.2c0-26.3,0-52.5,0-78.8c0-1.2,0-2.5,0-3.7
						C1601.9,309.6,1594.4,309.6,1594.4,314.4L1594.4,314.4z"/>
				</g>
			</g>
		</g>
		<g>
			<g>
				<path class="st1" d="M2051.8,714.9l-7.5-0.4c0,6.7,0.4,13.3-3.6,19.2c-4.3,6.4-11.2,9.4-18.7,9.5c-23.6,0.2-47.2,0-70.8,0
					c-33.1,0-66.3,0-99.4,0c-7.7,0-15.5,0.1-23.2,0c-12.7-0.1-21.8-9.8-21.9-22.4c-0.1-13.5,0-27,0-40.5c0-27.6,0-55.1,0-82.7
					c0-34.9,0-69.8,0-104.7s0-53.9,0-88.8c0-28.3,0-56.6,0-84.9c0-14.4,0.2-28.9,0-43.3c0-0.7,0-1.3,0-2c0-4.8-7.5-4.8-7.5,0
					c0,10.5,0,20.9,0,31.4c0,26.4,0,52.8,0,79.3c0,35.1,0,70.2,0,105.4c0,36.1,0,56.1,0,92.2c0,29.7,0,59.4,0,89.1
					c0,15.9,0,31.8,0,47.8c0,10.8,3.7,20.8,13.2,27.1c8.1,5.3,17.3,4.6,26.5,4.6c31.1,0,62.1,0,93.2,0c28.5,0,57,0,85.5,0
					c1.8,0,3.7,0,5.5,0c10.8-0.2,20.9-6.2,25.7-16C2051.9,728.3,2051.8,721.7,2051.8,714.9z"/>
			</g>
		</g>
		<g>
			<g>
				<g>
					<path class="st1" d="M2060.9,619.3c-9,0-18,0-27,0c-4.8,0-4.8,7.5,0,7.5c9,0,18,0,27,0C2065.7,626.8,2065.7,619.3,2060.9,619.3
						L2060.9,619.3z"/>
				</g>
			</g>
		</g>
		<g>
			<g>
				<g>
					<path class="st1" d="M2146.1,271.3c0,14.3,0,28.6,0,42.9c0,14.4-1,29.1,0.1,43.5c0.5,6.6,4,13.3,10.2,16c3,1.3,6.6,0.6,9.3,2.5
						c3.2,2.2,4.3,6.3,4.4,9.9c0.1,1.3,0,2.7,0,4c0,9.1,0,18.3,0,27.4c0,35.4,0,54.9,0,90.3c0,41.8,0,83.7,0,125.5
						c0,28.4,0,56.7,0,85.1c0,8.1-0.8,16.3,5.5,22.7c5.7,5.7,12.9,5.5,20.3,5.5c9.6,0,19.1,0,28.7,0c9.1,0,18.1,0,27.2,0
						c1.8,0,3.7,0,5.5,0c8.9,0,13.1,6.2,10.2,13.6c-2.1,5.3-9.4,5.4-14.9,5.4c-6.1,0-12.3,0-18.4,0c-38.5,0-77,0-115.5,0
						c-10,0-28.4,3.3-29.2-11.3c-0.6-11.9,0-23.9,0-35.8c0-20.6,0-41.2,0-61.8c0-7.6,0-15.2,0-22.8c0-3.8,0.3-7.8-0.3-11.6
						c-0.9-6.1-4.6-11.8-10.4-14.2c-5.5-2.3-12.3-1.2-18.1-1.2c-4.8,0-4.8,7.5,0,7.5c6,0,14.6-1.9,18.8,3.5c2,2.6,2.5,5.8,2.5,9
						c0,5,0,10,0,15c0,19.7,0,39.4,0,59.1c0,16.4,0,32.9,0,49.3c0,6.4,0.6,12.6,5.5,17.4c4.6,4.6,10.5,5.5,16.6,5.5
						c35.7,0,71.3,0,107,0c14.4,0,28.7,0,43.1,0c6.6,0,13.3-0.7,17.9-6c10.3-11.6,2-28-14.2-28c-15.8,0-31.9,0-47.7,0
						c-7,0-13.9,0.2-20.9,0c-7.1-0.2-11.8-5.1-11.9-12.1c-0.4-21.1,0-42.2,0-63.3c0-40.4,0-80.8,0-121.2c0-39.4,0-62.8,0-102.2
						c0-18,0.6-36.2,0-54.2c-0.2-6.2-2.5-12.4-7.7-16.1c-2.6-1.8-5-2.3-8.1-2.7c-4.9-0.7-7.7-4.9-8.2-9.7c-0.5-4.6-0.1-9.4-0.1-14.1
						c0-19.7,0-39.4,0-59.1c0-4.4,0-8.8,0-13.3C2153.6,266.4,2146.1,266.4,2146.1,271.3L2146.1,271.3z"/>
				</g>
			</g>
		</g>
		<g>
			<g>
				<g>
					<path class="st1" d="M2195.6,721.5c-20,0-35.9,0-55.9,0c-4.8,0-4.8,7.5,0,7.5c20,0,35.9,0,55.9,0
						C2200.4,729,2200.4,721.5,2195.6,721.5L2195.6,721.5z"/>
				</g>
			</g>
		</g>
		<g>
			<g>
				<g>
					<path class="st1" d="M2244.1,318.6c0,26.3,0,52.5,0,78.8c0,53.5,0,90.9,0,144.4c0,42.7,0,85.5,0,128.2c0,9.3-1.9,21.7,4.6,29.2
						c7.1,8.2,18.5,6.4,28.2,6.4c12.8,0,25.5,0,38.3,0c3.2,0,6.4,0,9.6,0c5.5,0,9.5,1.4,10.6,5.6c1.6,5.7-3.1,9.2-8.5,10
						c-6.7,1-14.1,0.2-20.8,0.2c-24.1,0-50.2,0-74.3,0c-1.8,0-3.6,0-5.5,0c-4.8,0-4.8,7.5,0,7.5c20.1,0,42.2,0,62.3,0
						c10.7,0,21.4,0,32.1,0c3.1,0,6.1,0.1,9.1-0.7c10.1-2.4,15.2-9.4,13.3-18.5c-2.7-12.7-18.1-11.6-28.3-11.6c-13,0-26.1,0-39.1,0
						c-9.3,0-23.3,2-24.1-11.3c-0.1-2.3,0-4.6,0-6.9c0-38.1,0-76.2,0-114.3c0-54.9,0-93.7,0-148.6c0-32.3,0.7-64.7,0-97
						c0-0.5,0-1,0-1.5C2251.6,313.7,2244.1,313.7,2244.1,318.6L2244.1,318.6z"/>
				</g>
			</g>
		</g>
	</g>
	<g id="mic">
		<g>
			<g>
				<g>
					<g>
						<g>
							<path class="st15" d="M1574-63.1"/>
						</g>
					</g>
				</g>
			</g>
			<g>
				<g>
					<g>
						<path class="st3" d="M1601,1.3c24-10.1,69.5-32.1,69.5-32.1c9.6-5.5,7.3-18.9,0.8-33.7c-6.5-14.9-15.4-22.4-24.4-20.1
							l-66.5,22.9c-4.2,1.5-7.2,2.8-7.2,2.8c-11.7,5.6-19.5,17.4-18.9,31.2c0.8,18.4,16.4,32.7,34.7,31.9
							C1589,4.1,1595,3.8,1601,1.3z"/>
					</g>
				</g>
			</g>
			<path class="st4" d="M1602.9-67.2l-23,4.4l-16.8,9.8c0,0-11.9,10-7.1,27.9s8.5,23.4,20.1,27.2s22.5,0,22.5,0l25.6-12.8
				L1602.9-67.2z"/>
			<g>
				<g>
					<g>
						<g>
							
								<rect x="1580.6" y="-42" transform="matrix(0.3532 0.9356 -0.9356 0.3532 1006.6153 -1533.9447)" class="st1" width="64.2" height="6"/>
						</g>
					</g>
				</g>
			</g>
			<g>
				<g>
					<g>
						<g>
							
								<rect x="1592.3" y="-46.6" transform="matrix(0.3499 0.9368 -0.9368 0.3499 1014.6527 -1549.2716)" class="st1" width="62.5" height="6"/>
						</g>
					</g>
				</g>
			</g>
			<g>
				<g>
					<g>
						<g>
							
								<rect x="1558.9" y="-33.9" transform="matrix(0.353 0.9356 -0.9356 0.353 1001.1645 -1509.5225)" class="st1" width="66.2" height="6"/>
						</g>
					</g>
				</g>
			</g>
			<g>
				<g>
					<g>
						<g>
							<path class="st1" d="M1574.6-39.8c-1.9,0-3.7-1.2-4.5-3.1c-0.9-2.5,0.3-5.2,2.7-6.2c1.2-0.5,2.5-0.4,3.6,0.1
								c1.2,0.5,2.1,1.5,2.5,2.6l0,0c0.5,1.2,0.4,2.5-0.1,3.6c-0.5,1.2-1.5,2.1-2.6,2.5C1575.7-39.9,1575.2-39.8,1574.6-39.8z
								 M1574.6-46.3c-0.2,0-0.4,0-0.6,0.1c-0.4,0.2-0.8,0.5-1,0.9s-0.2,0.9,0,1.4c0.2,0.4,0.5,0.8,0.9,1s0.9,0.2,1.4,0
								c0.9-0.3,1.4-1.4,1-2.3c-0.2-0.4-0.5-0.8-0.9-1C1575.1-46.3,1574.8-46.3,1574.6-46.3z"/>
						</g>
					</g>
				</g>
			</g>
			<g>
				<g>
					<g>
						<g>
							<path class="st1" d="M1579.4-27.4c-1.9,0-3.7-1.2-4.5-3.1c-0.5-1.2-0.4-2.5,0.1-3.6c0.5-1.2,1.5-2.1,2.6-2.5s2.5-0.4,3.6,0.1
								c1.2,0.5,2.1,1.5,2.5,2.6c0.9,2.5-0.3,5.2-2.7,6.2C1580.5-27.5,1579.9-27.4,1579.4-27.4z M1579.4-33.9c-0.2,0-0.4,0-0.6,0.1
								c-0.4,0.2-0.8,0.5-1,0.9s-0.2,0.9,0,1.4c0.2,0.4,0.5,0.8,0.9,1s0.9,0.2,1.4,0c0.4-0.2,0.8-0.5,1-0.9s0.2-0.9,0-1.4l0,0
								C1580.8-33.5,1580.1-33.9,1579.4-33.9z"/>
						</g>
					</g>
				</g>
			</g>
			<g>
				<g>
					<g>
						<g>
							<path class="st1" d="M1584.1-14.9c-0.7,0-1.3-0.1-1.9-0.4c-1.2-0.5-2.1-1.5-2.5-2.6c-0.5-1.2-0.4-2.5,0.1-3.6
								c0.5-1.2,1.5-2.1,2.6-2.5c2.5-0.9,5.2,0.3,6.2,2.7c0.9,2.5-0.3,5.2-2.7,6.2C1585.3-15,1584.7-14.9,1584.1-14.9z M1584.1-21.4
								c-0.2,0-0.4,0-0.6,0.1c-0.4,0.2-0.8,0.5-1,0.9s-0.2,0.9,0,1.4c0.3,0.9,1.4,1.4,2.3,1c0.9-0.3,1.4-1.4,1-2.3
								c-0.2-0.4-0.5-0.8-0.9-1C1584.6-21.4,1584.4-21.4,1584.1-21.4z"/>
						</g>
					</g>
				</g>
			</g>
			<g>
				<g>
					<g>
						<g>
							<path class="st1" d="M1588.9-2.4c-1.9,0-3.7-1.2-4.5-3.1c-0.9-2.5,0.3-5.2,2.7-6.2c1.2-0.5,2.5-0.4,3.6,0.1
								c1.2,0.5,2.1,1.5,2.5,2.6l0,0c0.5,1.2,0.4,2.5-0.1,3.6c-0.5,1.2-1.5,2.1-2.6,2.5C1590.1-2.5,1589.5-2.4,1588.9-2.4z
								 M1588.9-9c-0.2,0-0.4,0-0.6,0.1c-0.4,0.2-0.8,0.5-1,0.9s-0.2,0.9,0,1.4c0.2,0.4,0.5,0.8,0.9,1s0.9,0.2,1.4,0
								c0.9-0.3,1.4-1.4,1-2.3c-0.2-0.4-0.5-0.8-0.9-1C1589.4-8.9,1589.2-9,1588.9-9z"/>
						</g>
					</g>
				</g>
			</g>
			<g>
				<g>
					<g>
						<g>
							<path class="st1" d="M1566.5-22.6c-0.7,0-1.3-0.1-1.9-0.4c-1.2-0.5-2.1-1.5-2.5-2.6c-0.5-1.2-0.4-2.5,0.1-3.6
								c0.5-1.2,1.5-2.1,2.6-2.5c2.5-0.9,5.2,0.3,6.2,2.7c0.9,2.5-0.3,5.2-2.7,6.2C1567.7-22.7,1567.1-22.6,1566.5-22.6z
								 M1566.5-29.1c-0.2,0-0.4,0-0.6,0.1c-0.4,0.2-0.8,0.5-1,0.9s-0.2,0.9,0,1.4c0.3,0.9,1.4,1.4,2.3,1c0.9-0.3,1.4-1.4,1-2.3
								c-0.2-0.4-0.5-0.8-0.9-1C1567-29,1566.8-29.1,1566.5-29.1z"/>
						</g>
					</g>
				</g>
			</g>
			<g>
				<g>
					<g>
						<g>
							<path class="st1" d="M1571.3-10.1c-1.9,0-3.7-1.2-4.5-3.1c-0.9-2.5,0.3-5.2,2.7-6.2c1.2-0.5,2.5-0.4,3.6,0.1
								c1.2,0.5,2.1,1.5,2.5,2.6l0,0c0.5,1.2,0.4,2.5-0.1,3.6c-0.5,1.2-1.5,2.1-2.6,2.5C1572.5-10.2,1571.9-10.1,1571.3-10.1z
								 M1571.3-16.6c-0.2,0-0.4,0-0.6,0.1c-0.4,0.2-0.8,0.5-1,0.9s-0.2,0.9,0,1.4c0.3,0.9,1.4,1.4,2.3,1c0.9-0.3,1.4-1.4,1-2.3
								c-0.2-0.4-0.5-0.8-0.9-1C1571.8-16.6,1571.6-16.6,1571.3-16.6z"/>
						</g>
					</g>
				</g>
			</g>
			<g>
				<g>
					<g>
						<g>
							<path class="st1" d="M1680.4-6c-5.7,0-12.2-3.7-18.8-10.7c-7.6-8.1-14.8-20.1-20.2-33.6c-10.2-25.4-13-55.6,1.7-61.5
								c14.7-5.9,33.5,18,43.6,43.4c10.2,25.4,13,55.6-1.7,61.5C1683.6-6.3,1682-6,1680.4-6z M1647.8-105.1c-0.7,0-1.3,0.1-1.9,0.3
								c-7.4,3-7.9,25.7,2.5,51.7c5.1,12.7,11.7,23.7,18.7,31.2c6,6.4,11.7,9.4,15.2,8c7.4-3,7.9-25.7-2.5-51.7
								C1670.2-89.6,1655.8-105.1,1647.8-105.1z"/>
						</g>
					</g>
				</g>
			</g>
			<g>
				<g>
					<g>
						<g>
							
								<rect x="1629.1" y="-60.6" transform="matrix(0.3923 0.9198 -0.9198 0.3923 954.8558 -1560.5338)" class="st1" width="58.8" height="6"/>
						</g>
					</g>
				</g>
			</g>
			<g>
				<g>
					<g>
						<path class="st1" d="M1674.3-27.2l51.7-34.1l-4.3-6.8l-39.8,25.3c0.1-6.4-1.9-14.3-6.1-23.7c-3.5-7.9-7.6-13.9-12.1-17.8
							l51.2-11.8l-1.8-7.8l-66.5,14.2c-0.5,0.1-1.2,0.4-1.2,0.4l-66.8,22.9c-4.3,1.6-7.4,2.9-7.5,3l-0.1,0.1
							c-13.9,6.7-22.4,20.7-21.8,35.9c0.9,20.6,17.9,36.7,38.3,36.7c0.6,0,1.1,0,1.7,0c0.3,0,7-0.3,13.8-3.2
							c23.9-10,69.3-32,69.7-32.2C1672.7-26.3,1673.5-26.7,1674.3-27.2z M1668.2-35.2c-3,1.5-46.2,22.3-69.1,31.9l0,0
							c-5.1,2.1-10.3,2.4-10.3,2.4c-0.4,0-0.8,0-1.2,0c-15.1,0-27.6-11.9-28.3-27.1c-0.5-11.3,5.6-21.4,16-26.4
							c0.5-0.2,3.1-1.4,6.7-2.6l66.3-22.8c6.2-1.4,13,5,18.4,17.3C1673.2-47.7,1673.7-38.5,1668.2-35.2z"/>
					</g>
				</g>
			</g>
			<g>
				<g>
					<g>
						<g>
							
								<rect x="1684.2" y="-103.6" transform="matrix(0.3867 0.9222 -0.9222 0.3867 969.8438 -1600.416)" class="st1" width="8" height="65.2"/>
						</g>
					</g>
				</g>
			</g>
			<g>
				<g>
					<g>
						<polygon class="st3" points="1914.7,338.8 1891.4,379 1968.4,379 1953.3,346.8 						"/>
					</g>
				</g>
				<g>
					<g>
						<path class="st1" d="M1976.3,384h-93.6l29.4-50.7l44.6,9.2L1976.3,384z M1900.1,374h60.4l-10.7-22.7l-32.6-6.8L1900.1,374z"/>
					</g>
				</g>
			</g>
			<g>
				<g>
					<g>
						<g>
							<polygon class="st3" points="1715.9,-77.2 1723.2,-87.2 2040.3,62.8 2033.9,75.3 							"/>
						</g>
					</g>
				</g>
				<g>
					<g>
						<g>
							<path class="st1" d="M1724.3-82.8l311.2,147.3l-3.2,6.3L1721.2-78.5L1724.3-82.8 M1722.1-91.6l-3.4,4.7l-3.1,4.3l-5,6.8
								l7.6,3.6l311.1,149.3l6.1,2.9l3.1-6.1l3.2-6.3l3.3-6.4l-6.5-3.1L1727.3-89.1L1722.1-91.6L1722.1-91.6z"/>
						</g>
					</g>
				</g>
			</g>
			<g>
				<g>
					<g>
						<g>
							<polygon class="st3" points="1736.8,-90.6 1743.7,-100.9 2042.4,33.9 2036.3,46.6 							"/>
						</g>
					</g>
				</g>
				<g>
					<g>
						<g>
							<path class="st1" d="M1745-96.5l292.7,132l-3,6.4l-292.6-134L1745-96.5 M1742.5-105.3l-3.3,4.9l-3,4.4l-4.6,6.8l7.5,3.4
								l292.6,134l6.3,2.9l3-6.2l3-6.4l3.1-6.5l-6.5-2.9l-292.7-131.9L1742.5-105.3L1742.5-105.3z"/>
						</g>
					</g>
				</g>
			</g>
			<g>
				<g>
					<g>
						<g>
							<polygon class="st3" points="1939.2,333.5 2050.5,72 2063.3,77.9 1949.5,340.4 							"/>
						</g>
					</g>
				</g>
				<g>
					<g>
						<g>
							<path class="st1" d="M2052.4,76.7l6.4,2.9L1948,335.1l-4.4-2.9L2052.4,76.7 M2048.7,67.4l-2.8,6.6l-108.8,255.5l-2.3,5.4
								l4.8,3.2l4.4,2.9l7,4.6l3.3-7.7l110.8-255.5l2.7-6.3l-6.2-2.9l-6.4-2.9L2048.7,67.4L2048.7,67.4z"/>
						</g>
					</g>
				</g>
			</g>
			<g>
				<g>
					<g>
						<g>
							<polygon class="st3" points="1924.6,313.6 2021.5,71.3 2034.5,76.8 1935.1,320.1 							"/>
						</g>
					</g>
				</g>
				<g>
					<g>
						<g>
							<path class="st1" d="M2023.4,75.9l6.5,2.8l-96.4,236.2l-4.5-2.8L2023.4,75.9 M2019.6,66.7l-2.7,6.6l-94.5,236.3l-2.2,5.5
								l5,3.1l4.5,2.8l7,4.3l3.1-7.6l96.5-236.3l2.6-6.4l-6.4-2.7l-6.5-2.8L2019.6,66.7L2019.6,66.7z"/>
						</g>
					</g>
				</g>
			</g>
			<g>
				<g>
					<g>
						<circle class="st16" cx="1732.9" cy="-87.4" r="30.7"/>
					</g>
				</g>
				<g>
					<g>
						<path class="st1" d="M1732.9-51.8c-19.7,0-35.7-16-35.7-35.7s16-35.7,35.7-35.7s35.7,16,35.7,35.7S1752.6-51.8,1732.9-51.8z
							 M1732.9-113.1c-14.2,0-25.7,11.5-25.7,25.7s11.5,25.7,25.7,25.7s25.7-11.5,25.7-25.7S1747-113.1,1732.9-113.1z"/>
					</g>
				</g>
			</g>
			<g>
				<g>
					<g>
						<circle class="st4" cx="1732.9" cy="-87.4" r="11"/>
					</g>
				</g>
				<g>
					<g>
						<path class="st1" d="M1732.9-72.9c-8,0-14.5-6.5-14.5-14.5s6.5-14.5,14.5-14.5s14.5,6.5,14.5,14.5S1740.9-72.9,1732.9-72.9z
							 M1732.9-95c-4.2,0-7.5,3.4-7.5,7.5s3.4,7.5,7.5,7.5s7.5-3.4,7.5-7.5S1737-95,1732.9-95z"/>
					</g>
				</g>
			</g>
			<g>
				<g>
					<g>
						<circle class="st16" cx="2047.3" cy="59.8" r="30.7"/>
					</g>
				</g>
				<g>
					<g>
						<path class="st1" d="M2047.3,95.5c-19.7,0-35.7-16-35.7-35.7s16-35.7,35.7-35.7c19.7,0,35.7,16,35.7,35.7
							C2082.9,79.5,2066.9,95.5,2047.3,95.5z M2047.3,34.2c-14.2,0-25.7,11.5-25.7,25.7s11.5,25.7,25.7,25.7
							c14.2,0,25.7-11.5,25.7-25.7C2072.9,45.7,2061.4,34.2,2047.3,34.2z"/>
					</g>
				</g>
			</g>
			<g>
				<g>
					<g>
						<circle class="st4" cx="2047.3" cy="59.8" r="11"/>
					</g>
				</g>
				<g>
					<g>
						<path class="st1" d="M2047.3,74.4c-8,0-14.5-6.5-14.5-14.5s6.5-14.5,14.5-14.5c8,0,14.5,6.5,14.5,14.5
							S2055.3,74.4,2047.3,74.4z M2047.3,52.3c-4.2,0-7.5,3.4-7.5,7.5s3.4,7.5,7.5,7.5s7.5-3.4,7.5-7.5S2051.4,52.3,2047.3,52.3z"/>
					</g>
				</g>
			</g>
			<g>
				<g>
					<g>
						<circle class="st16" cx="1932.7" cy="331.1" r="25.9"/>
					</g>
				</g>
				<g>
					<g>
						<path class="st1" d="M1932.7,362c-17.1,0-30.9-13.9-30.9-30.9c0-17.1,13.9-30.9,30.9-30.9s30.9,13.9,30.9,30.9
							C1963.6,348.1,1949.7,362,1932.7,362z M1932.7,310.1c-11.6,0-20.9,9.4-20.9,20.9c0,11.6,9.4,20.9,20.9,20.9
							s20.9-9.4,20.9-20.9C1953.6,319.5,1944.2,310.1,1932.7,310.1z"/>
					</g>
				</g>
			</g>
			<g>
				<g>
					<g>
						<circle class="st4" cx="1932.7" cy="331.1" r="9.3"/>
					</g>
				</g>
				<g>
					<g>
						<path class="st1" d="M1932.7,343.4c-6.8,0-12.3-5.5-12.3-12.3s5.5-12.3,12.3-12.3s12.3,5.5,12.3,12.3
							C1945,337.9,1939.4,343.4,1932.7,343.4z M1932.7,324.7c-3.5,0-6.4,2.9-6.4,6.4s2.9,6.4,6.4,6.4s6.4-2.9,6.4-6.4
							S1936.2,324.7,1932.7,324.7z"/>
					</g>
				</g>
			</g>
		</g>
	</g>
</g>
</svg>
