<?xml version="1.0" encoding="UTF-8" standalone="no"?>
<svg
   xmlns:dc="http://purl.org/dc/elements/1.1/"
   xmlns:cc="http://creativecommons.org/ns#"
   xmlns:rdf="http://www.w3.org/1999/02/22-rdf-syntax-ns#"
   xmlns:svg="http://www.w3.org/2000/svg"
   xmlns="http://www.w3.org/2000/svg"
   xmlns:sodipodi="http://sodipodi.sourceforge.net/DTD/sodipodi-0.dtd"
   xmlns:inkscape="http://www.inkscape.org/namespaces/inkscape"
   version="1.1"
   id="Layer_15"
   x="0px"
   y="0px"
   viewBox="0 0 638 155.2"
   enable-background="new 0 0 638 155.2"
   xml:space="preserve"
   sodipodi:docname="web-logo-inverse-02.svg"
   inkscape:version="1.0.2 (e86c870879, 2021-01-15)"><metadata
   id="metadata147"><rdf:RDF><cc:Work
       rdf:about=""><dc:format>image/svg+xml</dc:format><dc:type
         rdf:resource="http://purl.org/dc/dcmitype/StillImage" /><dc:title></dc:title></cc:Work></rdf:RDF></metadata><defs
   id="defs145">
	
	
</defs><sodipodi:namedview
   pagecolor="#0a0a0a"
   bordercolor="#666666"
   borderopacity="1"
   objecttolerance="10"
   gridtolerance="10"
   guidetolerance="10"
   inkscape:pageopacity="0"
   inkscape:pageshadow="2"
   inkscape:window-width="1920"
   inkscape:window-height="1016"
   id="namedview143"
   showgrid="false"
   inkscape:zoom="0.93098699"
   inkscape:cx="139.45331"
   inkscape:cy="-44.058244"
   inkscape:window-x="0"
   inkscape:window-y="27"
   inkscape:window-maximized="1"
   inkscape:current-layer="g34" />
<g
   id="g34">
		
		
		
		
		
		
		
		
	<text
   xml:space="preserve"
   style="font-style:normal;font-variant:normal;font-weight:bold;font-stretch:normal;font-size:60px;line-height:1.25;font-family:Cantarell;-inkscape-font-specification:'Cantarell, Bold';font-variant-ligatures:normal;font-variant-caps:normal;font-variant-numeric:normal;font-variant-east-asian:normal;fill:#000000;fill-opacity:1;stroke:none"
   x="187.56877"
   y="98.209999"
   id="text220"><tspan
     sodipodi:role="line"
     id="tspan218"
     x="187.56877"
     y="98.209999"
     style="font-style:normal;font-variant:normal;font-weight:bold;font-stretch:normal;font-size:60px;font-family:Cantarell;-inkscape-font-specification:'Cantarell, Bold';font-variant-ligatures:normal;font-variant-caps:normal;font-variant-numeric:normal;font-variant-east-asian:normal;fill:#ffffff">SpamSentryBot</tspan></text></g><g
   id="g138">
		<g
   id="g40">
			<g
   id="g38">
				<path
   fill="#ffffff"
   d="m 60.1,106.9 1.8,2.4 c 14.5,19.6 46.9,16.4 56.5,15 8.2,-1.2 19.5,-4.5 26.9,-13.2 0.7,-0.8 1.4,-1.7 2,-2.6 l 1.4,-2.1 2.6,0.2 c 1.4,0.1 2.8,0.1 4.2,0 6.1,-0.5 11.4,-10.1 12.4,-22.4 0.9,-11.4 -3.9,-22.1 -10.4,-23.3 v 0 c -0.5,-0.1 -1,-0.2 -1.6,-0.2 l -2.8,-0.4 -0.9,-2.7 c -1.1,-3.3 -2.5,-6.4 -4.2,-9 -5,-7.9 -13.3,-13.7 -23.6,-16.4 -12.5,-3.2 -27.4,-3 -40.9,0.7 -7.2,2 -17,6.3 -23.1,15.7 -1.7,2.7 -3.2,5.9 -4.2,9.4 l -1,3.3 -3.3,-0.3 c -2.5,-0.1 -4.9,0.3 -6.7,1.2 -3.6,1.7 -5.8,5.8 -7,8.9 -3.8,10.1 -1.9,24 4.6,32.3 2.4,3.1 5.1,4.6 8.2,4.8 2.3,0.1 4.4,0 6.3,-0.5 z"
   id="path36" />
			</g>
		</g>
		<g
   id="g136">
			<g
   id="g46">
				<g
   id="g44">
					<path
   fill="#ff8745"
   d="m 134.7,80.9 c 1.1,-13.3 7.2,-25.4 23.3,-22.3 7.6,1.4 13.3,12.4 12.3,25.7 -1.1,13.3 -6.9,23.9 -14.5,24.5 -20.2,1.5 -22.2,-14.6 -21.1,-27.9 z"
   id="path42" />
				</g>
			</g>
			<g
   id="g50">
				<path
   fill="#003e51"
   d="m 158.3,56.4 c -6.7,-1.3 -12.3,-0.2 -16.7,3.1 -6.7,5.1 -8.8,14.4 -9.3,21.2 -0.9,11.9 1,20 6,25 3.5,3.5 8.5,5.3 14.8,5.3 0.9,0 1.8,0 2.7,-0.1 8.5,-0.6 15.3,-11.5 16.5,-26.5 1.2,-14 -5,-26.3 -14,-28 z m 9.6,27.7 c -1,12.3 -6.3,21.9 -12.4,22.4 -6.3,0.5 -11,-0.8 -14.1,-3.9 -4,-4 -5.5,-11 -4.7,-21.5 0.5,-5.9 2.2,-13.9 7.6,-18 2.4,-1.8 5.3,-2.7 8.7,-2.7 1.4,0 2.8,0.1 4.4,0.4 5.9,1.1 11.5,10.3 10.5,23.3 z"
   id="path48" />
			</g>
			<g
   id="g56">
				<g
   id="g54">
					<path
   fill="#3fa9f5"
   d="m 156.4,76.5 c 0,28.2 -11,49.5 -52.2,49.5 C 61.5,126 51.6,103.6 52,75.4 52.4,48.3 63.2,28.5 104.2,27.6 c 39,-0.9 52.2,20.7 52.2,48.9 z"
   id="path52" />
				</g>
			</g>
			<g
   id="g60">
				<path
   fill="#003e51"
   d="M 151.8,46 C 145.9,36.5 136.3,30.4 125.6,27.7 111.9,24.2 96.1,24.7 82.5,28.4 72.1,31.2 62.6,36.8 56.8,46 c -5.5,8.6 -7.2,19.1 -7.4,29.1 -0.3,10.3 0.7,21 5.1,30.5 11,23.7 41.7,26.5 64.6,23.2 11.1,-1.6 22.3,-6 29.6,-14.8 6.7,-8 9.5,-18.1 10.5,-28.3 0.3,-2.8 0.3,-5.5 0.4,-8.3 -0.1,-10.8 -1.9,-22.1 -7.8,-31.4 z m -3.9,58.8 c -4.6,8.4 -12.6,13.7 -21.6,16.4 -12.5,3.7 -27.1,3.8 -39.8,1.1 -9.2,-2 -18.1,-6.2 -23.7,-14 -5.2,-7.4 -7,-16.4 -7.5,-25.3 -0.5,-9.4 0,-19.3 3.6,-28.2 8.6,-21.5 35.4,-24.9 55.7,-23 11.5,1.1 23.3,5.2 30.5,14.8 6.7,8.8 8.5,20.1 8.6,30.9 -0.1,9.2 -1.2,19 -5.8,27.3 z"
   id="path58" />
			</g>
			<g
   id="g66">
				<g
   id="g64">
					<path
   fill="#003e51"
   d="m 143.9,55.5 c -3.6,-6.3 -9.6,-10.4 -16.4,-12.4 -8.8,-2.5 -18.9,-2.1 -27.6,0.4 -6.9,2 -13.1,6.1 -17.1,12.4 -3.9,6.2 -5.1,13.8 -5.3,21.1 -0.2,7.5 0.7,15.2 4.1,21.9 7.9,15.5 27.8,17.7 42.9,14.9 7.7,-1.4 15,-5.2 19.3,-12.1 4.3,-7 5.1,-15.7 5.2,-23.7 -0.1,-7.7 -1.2,-15.8 -5.1,-22.5 z"
   id="path62" />
				</g>
			</g>
			<g
   id="g72">
				<g
   id="g70">
					<circle
   fill="#ffffff"
   cx="97.400002"
   cy="74.800003"
   r="8"
   id="circle68" />
				</g>
			</g>
			<g
   id="g78">
				<g
   id="g76">
					<circle
   fill="#ffffff"
   cx="134.60001"
   cy="74.800003"
   r="7.5999999"
   id="circle74" />
				</g>
			</g>
			<g
   id="g86">
				<g
   id="g84">
					<g
   id="g82">
						<path
   fill="#ffffff"
   d="m 109.2,82.1 c 2.4,8 13.4,8 15.8,0 0.5,-1.7 -2.2,-2.5 -2.7,-0.7 -1.6,5.3 -8.8,5.3 -10.4,0 -0.5,-1.8 -3.2,-1 -2.7,0.7 z"
   id="path80" />
					</g>
				</g>
			</g>
			<g
   id="g92">
				<g
   id="g90">
					<path
   fill="#ff8745"
   d="M 70.2,81.8 C 69.1,68.5 62.9,56.5 46.8,59.6 39.2,61 33.5,72 34.7,85.4 c 1.1,13.3 7.8,24.1 15.4,24.6 20.2,1.4 21.3,-14.9 20.1,-28.2 z"
   id="path88" />
				</g>
			</g>
			<g
   id="g96">
				<path
   fill="#003e51"
   d="M 72.6,81.8 C 71.7,72.3 68.4,61.5 58.6,57.8 54,56 47.8,56 43.2,58.1 c -4.6,2.1 -7.5,6.7 -9.3,11.3 -4.4,11.5 -2.3,26.9 5.2,36.6 2.9,3.8 6.7,6.3 11.5,6.5 5,0.3 10.3,-0.6 14.3,-3.7 8.4,-6 8.4,-17.8 7.7,-27 z m -7.7,20 c -3.6,5.8 -14,8.2 -19.4,3.6 -12.1,-10.1 -13.6,-47.3 8.8,-43.6 9.4,1.6 12.6,11.7 13.3,20 0.5,6.5 0.9,14.2 -2.7,20 z"
   id="path94" />
			</g>
			<g
   id="g110">
				<g
   id="g102">
					<g
   id="g100">
						<path
   fill="#ffffff"
   d="m 71,92.9 c 0,0 -3.8,-3.1 -7,0.2 -4.6,5 -0.3,9.3 5.5,14.4 5.8,5.1 7.9,5.4 20.6,4.9 14.5,-0.6 17.7,-3.3 18,-6.5 0.2,-2.5 -1.6,-4.4 -6.9,-4.1 -6.6,0.3 -15.8,0.7 -18.4,0.6 -2.6,-0.1 -8.5,-6.9 -11.8,-9.5 z"
   id="path98" />
					</g>
				</g>
				<g
   id="g108">
					<g
   id="g106">
						<path
   fill="#003e51"
   d="m 86.6,114.5 c -9.9,0.3 -12.7,-0.5 -18.4,-5.5 -4.3,-3.8 -7.9,-7.2 -8.1,-11.2 -0.1,-2.1 0.7,-4.1 2.5,-6 3.5,-3.7 7.8,-1.9 9.6,-0.4 1.1,0.9 2.5,2.2 3.9,3.6 1.9,1.9 5.6,5.4 6.8,5.5 2.7,0.1 13.2,-0.4 18.2,-0.6 3.5,-0.2 6.1,0.5 7.6,2.1 1,1.1 1.5,2.5 1.4,4.1 -0.5,5.3 -6.2,7.7 -19.9,8.3 -1.4,0 -2.5,0 -3.6,0.1 z M 67.4,93.4 c -0.6,0 -1.3,0.3 -1.9,1 -1,1.1 -1.5,2.1 -1.4,3.1 0.1,2.5 3.3,5.4 6.8,8.5 5.2,4.6 6.7,4.9 19.2,4.4 10.5,-0.4 16,-1.8 16.2,-4.5 0.1,-0.6 -0.2,-1.1 -0.4,-1.3 -0.3,-0.3 -1.4,-1 -4.5,-0.9 -8.1,0.4 -16,0.7 -18.6,0.6 -2.4,-0.1 -5.1,-2.6 -9.3,-6.6 -1.4,-1.3 -2.6,-2.5 -3.6,-3.3 v 0 c -0.4,-0.2 -1.4,-1 -2.5,-1 z"
   id="path104" />
					</g>
				</g>
			</g>
			<g
   id="g116">
				<g
   id="g114">
					
						<ellipse
   transform="matrix(0.9987,-0.05010627,0.05010627,0.9987,-4.1805,2.2605)"
   fill="#ffffff"
   cx="43"
   cy="84.5"
   rx="3.0999999"
   ry="6.1999998"
   id="ellipse112" />
				</g>
			</g>
			<g
   id="g122">
				<g
   id="g120">
					<path
   fill="#ffffff"
   d="M 56.8,84.5 C 56.6,78.4 55.5,72.1 52,66.9 c -2.2,-3.2 -5.7,-4.2 -7.9,-0.5 -0.2,0.3 -0.5,1 -0.2,1.2 0.1,0.1 0.3,0.1 0.5,0 0.5,-0.3 4.1,-3.3 7.2,5.9 3.1,9.3 2.7,20 -0.4,25.2 -2.3,4.1 -6.1,2.2 -6.1,2.2 -1.5,-0.5 -1.1,0.2 -0.7,0.8 2.5,3.5 6.6,2.4 8.9,-0.7 3.2,-4.2 3.7,-11.3 3.5,-16.5 z"
   id="path118" />
				</g>
			</g>
			<g
   id="g128">
				<g
   id="g126">
					
						<ellipse
   transform="matrix(0.7328,0.6804,-0.6804,0.7328,51.6475,-34.5897)"
   fill="#ffffff"
   cx="69.900002"
   cy="48.5"
   rx="3.4000001"
   ry="8.3999996"
   id="ellipse124" />
				</g>
			</g>
			<g
   id="g134">
				<g
   id="g132">
					
						<ellipse
   transform="matrix(0.3846,0.9231,-0.9231,0.3846,86.6616,-50.3873)"
   fill="#ffffff"
   cx="81.099998"
   cy="39.799999"
   rx="1.9"
   ry="3.8"
   id="ellipse130" />
				</g>
			</g>
		</g>
	</g>
</svg>
