<?xml version="1.0" encoding="utf-8"?>
<!-- Generator: Adobe Illustrator 18.0.0, SVG Export Plug-In . SVG Version: 6.00 Build 0)  -->
<!DOCTYPE svg PUBLIC "-//W3C//DTD SVG 1.1//EN" "http://www.w3.org/Graphics/SVG/1.1/DTD/svg11.dtd">
<svg version="1.1" id="Layer_15" xmlns="http://www.w3.org/2000/svg" xmlns:xlink="http://www.w3.org/1999/xlink" x="0px" y="0px"
	 viewBox="0 0 638 155.2" enable-background="new 0 0 638 155.2" xml:space="preserve">
<g>
	<g>
		<g>
			<path fill="#FCFCFC" d="M195.9,58.9c0-3.9,2.9-6.8,6.8-6.8c3.9,0,6.8,2.9,6.8,6.8v16l15.6-19.8c1.2-1.7,3.3-3,5.5-3
				c3.6,0,6.1,2.6,6.1,6.2c0,1.5-0.9,3.4-1.9,4.5l-11.6,13.4l13.1,16.3c0.9,1.1,1.6,2.8,1.6,4.3c0,3.6-2.6,6.2-6.2,6.2
				c-2.2,0-4.2-1.2-5.4-2.8l-16.8-21.5v17.4c0,3.9-2.9,6.8-6.8,6.8c-3.9,0-6.8-2.9-6.8-6.8V58.9z"/>
		</g>
		<g>
			<path fill="#FCFCFC" d="M241.1,92.8L255.2,59c1.9-4.5,5-6.9,9.4-6.9s7.5,2.3,9.3,6.9l13.6,33.1c0.8,1.9,1,3.2,1,4.1
				c0,4-2.7,6.9-6.8,6.9c-3.2,0-5.5-1.8-6.7-5.2l-1.4-3.7h-19.1l-1.3,3.7c-1.2,3.4-3.4,5.3-6.5,5.3c-3.8,0-6.6-2.7-6.6-6.5
				C240.2,95.6,240.5,94.4,241.1,92.8z M269.7,83.3l-5.6-15.5l-5.7,15.5H269.7z"/>
		</g>
		<g>
			<path fill="#FCFCFC" d="M336.8,70c0,10.5-8.1,17.9-19.9,17.9h-8.4v8.2c0,3.9-2.9,6.8-6.8,6.8s-6.8-2.9-6.8-6.8V59.3
				c0-3.9,2.9-6.8,6.8-6.8h15.6C329.2,52.4,336.8,59.5,336.8,70z M323.2,70.4c0-3.7-2.8-6.5-7.2-6.5h-7.5v12.9h7.5
				C320.4,76.8,323.2,74.1,323.2,70.4z"/>
		</g>
		<g>
			<path fill="#FCFCFC" d="M385.3,70c0,10.5-8.1,17.9-19.9,17.9H357v8.2c0,3.9-2.9,6.8-6.8,6.8s-6.8-2.9-6.8-6.8V59.3
				c0-3.9,2.9-6.8,6.8-6.8h15.6C377.7,52.4,385.3,59.5,385.3,70z M371.7,70.4c0-3.7-2.8-6.5-7.2-6.5H357v12.9h7.5
				C368.9,76.8,371.7,74.1,371.7,70.4z"/>
		</g>
		<g>
			<path fill="#FCFCFC" d="M385.9,92.8L400,59c1.9-4.5,5-6.9,9.4-6.9s7.5,2.3,9.3,6.9l13.6,33.1c0.8,1.9,1,3.2,1,4.1
				c0,4-2.7,6.9-6.8,6.9c-3.2,0-5.5-1.8-6.7-5.2l-1.4-3.7h-19.1l-1.3,3.7c-1.2,3.4-3.4,5.3-6.5,5.3c-3.8,0-6.6-2.7-6.6-6.5
				C385,95.6,385.3,94.4,385.9,92.8z M414.6,83.3L409,67.8l-5.7,15.5H414.6z"/>
		</g>
		<g>
			<path fill="#FCFCFC" d="M438.7,60.6c0-4.9,3.6-8.5,8.5-8.5c3.7,0,6.5,2.3,8.2,5.7l10.6,20.9L477,56.9c1.6-3.1,4.3-4.8,7.5-4.8
				c4.6,0,8,3.4,8,8v36.4c0,3.9-2.7,6.6-6.5,6.6c-3.9,0-6.6-2.7-6.6-6.6V75.3l-7.7,15.4c-1.3,2.5-2.9,4.4-6,4.4
				c-3.1,0-4.7-1.9-6-4.4l-7.8-15.4v21.1c0,3.9-2.7,6.6-6.5,6.6c-3.9,0-6.6-2.7-6.6-6.6V60.6z"/>
		</g>
		<g>
			<path fill="#FCFCFC" d="M526.5,51.7c15.1,0,26.3,11.1,26.3,25.6c0,14.5-11.6,26-26.8,26c-15.1,0-26.3-11.1-26.3-25.6
				C499.8,63.3,511.4,51.7,526.5,51.7z M526.3,90.8c7.5,0,12.9-5.7,12.9-13.3s-5.4-13.3-12.9-13.3c-7.5,0-12.9,5.7-12.9,13.3
				S518.8,90.8,526.3,90.8z"/>
		</g>
		<g>
			<path fill="#FCFCFC" d="M559.6,60.9c0-5.1,3.7-8.8,8.9-8.8c3.2,0,5.9,1.7,7.7,4.4L593,81.2V58.7c0-3.9,2.7-6.6,6.7-6.6
				c3.9,0,6.6,2.7,6.6,6.6v36c0,4.8-3.5,8.3-8.3,8.3c-3.1,0-6-1.9-7.7-4.4l-17.4-25.7v23.5c0,3.9-2.7,6.7-6.6,6.7
				c-3.9,0-6.7-2.7-6.7-6.7V60.9z"/>
		</g>
	</g>
	<g>
		<g>
			<g>
				<path fill="#FFFFFF" d="M60.1,106.9l1.8,2.4c14.5,19.6,46.9,16.4,56.5,15c8.2-1.2,19.5-4.5,26.9-13.2c0.7-0.8,1.4-1.7,2-2.6
					l1.4-2.1l2.6,0.2c1.4,0.1,2.8,0.1,4.2,0c6.1-0.5,11.4-10.1,12.4-22.4c0.9-11.4-3.9-22.1-10.4-23.3l0,0c-0.5-0.1-1-0.2-1.6-0.2
					l-2.8-0.4l-0.9-2.7c-1.1-3.3-2.5-6.4-4.2-9c-5-7.9-13.3-13.7-23.6-16.4c-12.5-3.2-27.4-3-40.9,0.7c-7.2,2-17,6.3-23.1,15.7
					c-1.7,2.7-3.2,5.9-4.2,9.4l-1,3.3L51.9,61c-2.5-0.1-4.9,0.3-6.7,1.2c-3.6,1.7-5.8,5.8-7,8.9c-3.8,10.1-1.9,24,4.6,32.3
					c2.4,3.1,5.1,4.6,8.2,4.8c2.3,0.1,4.4,0,6.3-0.5L60.1,106.9z"/>
			</g>
		</g>
		<g>
			<g>
				<g>
					<path fill="#FF8745" d="M134.7,80.9c1.1-13.3,7.2-25.4,23.3-22.3c7.6,1.4,13.3,12.4,12.3,25.7c-1.1,13.3-6.9,23.9-14.5,24.5
						C135.6,110.3,133.6,94.2,134.7,80.9z"/>
				</g>
			</g>
			<g>
				<path fill="#003E51" d="M158.3,56.4c-6.7-1.3-12.3-0.2-16.7,3.1c-6.7,5.1-8.8,14.4-9.3,21.2c-0.9,11.9,1,20,6,25
					c3.5,3.5,8.5,5.3,14.8,5.3c0.9,0,1.8,0,2.7-0.1c8.5-0.6,15.3-11.5,16.5-26.5C173.5,70.4,167.3,58.1,158.3,56.4z M167.9,84.1
					c-1,12.3-6.3,21.9-12.4,22.4c-6.3,0.5-11-0.8-14.1-3.9c-4-4-5.5-11-4.7-21.5c0.5-5.9,2.2-13.9,7.6-18c2.4-1.8,5.3-2.7,8.7-2.7
					c1.4,0,2.8,0.1,4.4,0.4C163.3,61.9,168.9,71.1,167.9,84.1z"/>
			</g>
			<g>
				<g>
					<path fill="#3FA9F5" d="M156.4,76.5c0,28.2-11,49.5-52.2,49.5c-42.7,0-52.6-22.4-52.2-50.6c0.4-27.1,11.2-46.9,52.2-47.8
						C143.2,26.7,156.4,48.3,156.4,76.5z"/>
				</g>
			</g>
			<g>
				<path fill="#003E51" d="M151.8,46c-5.9-9.5-15.5-15.6-26.2-18.3c-13.7-3.5-29.5-3-43.1,0.7C72.1,31.2,62.6,36.8,56.8,46
					c-5.5,8.6-7.2,19.1-7.4,29.1c-0.3,10.3,0.7,21,5.1,30.5c11,23.7,41.7,26.5,64.6,23.2c11.1-1.6,22.3-6,29.6-14.8
					c6.7-8,9.5-18.1,10.5-28.3c0.3-2.8,0.3-5.5,0.4-8.3C159.5,66.6,157.7,55.3,151.8,46z M147.9,104.8c-4.6,8.4-12.6,13.7-21.6,16.4
					c-12.5,3.7-27.1,3.8-39.8,1.1c-9.2-2-18.1-6.2-23.7-14c-5.2-7.4-7-16.4-7.5-25.3c-0.5-9.4,0-19.3,3.6-28.2
					c8.6-21.5,35.4-24.9,55.7-23c11.5,1.1,23.3,5.2,30.5,14.8c6.7,8.8,8.5,20.1,8.6,30.9C153.6,86.7,152.5,96.5,147.9,104.8z"/>
			</g>
			<g>
				<g>
					<path fill="#003E51" d="M143.9,55.5c-3.6-6.3-9.6-10.4-16.4-12.4c-8.8-2.5-18.9-2.1-27.6,0.4c-6.9,2-13.1,6.1-17.1,12.4
						c-3.9,6.2-5.1,13.8-5.3,21.1c-0.2,7.5,0.7,15.2,4.1,21.9c7.9,15.5,27.8,17.7,42.9,14.9c7.7-1.4,15-5.2,19.3-12.1
						c4.3-7,5.1-15.7,5.2-23.7C148.9,70.3,147.8,62.2,143.9,55.5z"/>
				</g>
			</g>
			<g>
				<g>
					<circle fill="#FFFFFF" cx="97.4" cy="74.8" r="8"/>
				</g>
			</g>
			<g>
				<g>
					<circle fill="#FFFFFF" cx="134.6" cy="74.8" r="7.6"/>
				</g>
			</g>
			<g>
				<g>
					<g>
						<path fill="#FFFFFF" d="M109.2,82.1c2.4,8,13.4,8,15.8,0c0.5-1.7-2.2-2.5-2.7-0.7c-1.6,5.3-8.8,5.3-10.4,0
							C111.4,79.6,108.7,80.4,109.2,82.1L109.2,82.1z"/>
					</g>
				</g>
			</g>
			<g>
				<g>
					<path fill="#FF8745" d="M70.2,81.8c-1.1-13.3-7.3-25.3-23.4-22.2C39.2,61,33.5,72,34.7,85.4c1.1,13.3,7.8,24.1,15.4,24.6
						C70.3,111.4,71.4,95.1,70.2,81.8z"/>
				</g>
			</g>
			<g>
				<path fill="#003E51" d="M72.6,81.8c-0.9-9.5-4.2-20.3-14-24C54,56,47.8,56,43.2,58.1c-4.6,2.1-7.5,6.7-9.3,11.3
					c-4.4,11.5-2.3,26.9,5.2,36.6c2.9,3.8,6.7,6.3,11.5,6.5c5,0.3,10.3-0.6,14.3-3.7C73.3,102.8,73.3,91,72.6,81.8z M64.9,101.8
					c-3.6,5.8-14,8.2-19.4,3.6c-12.1-10.1-13.6-47.3,8.8-43.6c9.4,1.6,12.6,11.7,13.3,20C68.1,88.3,68.5,96,64.9,101.8z"/>
			</g>
			<g>
				<g>
					<g>
						<path fill="#FFFFFF" d="M71,92.9c0,0-3.8-3.1-7,0.2c-4.6,5-0.3,9.3,5.5,14.4c5.8,5.1,7.9,5.4,20.6,4.9
							c14.5-0.6,17.7-3.3,18-6.5c0.2-2.5-1.6-4.4-6.9-4.1c-6.6,0.3-15.8,0.7-18.4,0.6S74.3,95.5,71,92.9z"/>
					</g>
				</g>
				<g>
					<g>
						<path fill="#003E51" d="M86.6,114.5c-9.9,0.3-12.7-0.5-18.4-5.5c-4.3-3.8-7.9-7.2-8.1-11.2c-0.1-2.1,0.7-4.1,2.5-6
							c3.5-3.7,7.8-1.9,9.6-0.4c1.1,0.9,2.5,2.2,3.9,3.6c1.9,1.9,5.6,5.4,6.8,5.5c2.7,0.1,13.2-0.4,18.2-0.6
							c3.5-0.2,6.1,0.5,7.6,2.1c1,1.1,1.5,2.5,1.4,4.1c-0.5,5.3-6.2,7.7-19.9,8.3C88.8,114.4,87.7,114.4,86.6,114.5z M67.4,93.4
							c-0.6,0-1.3,0.3-1.9,1c-1,1.1-1.5,2.1-1.4,3.1c0.1,2.5,3.3,5.4,6.8,8.5c5.2,4.6,6.7,4.9,19.2,4.4c10.5-0.4,16-1.8,16.2-4.5
							c0.1-0.6-0.2-1.1-0.4-1.3c-0.3-0.3-1.4-1-4.5-0.9c-8.1,0.4-16,0.7-18.6,0.6c-2.4-0.1-5.1-2.6-9.3-6.6
							c-1.4-1.3-2.6-2.5-3.6-3.3l0,0C69.5,94.2,68.5,93.4,67.4,93.4z"/>
					</g>
				</g>
			</g>
			<g>
				<g>
					
						<ellipse transform="matrix(0.9987 -5.010627e-02 5.010627e-02 0.9987 -4.1805 2.2605)" fill="#FFFFFF" cx="43" cy="84.5" rx="3.1" ry="6.2"/>
				</g>
			</g>
			<g>
				<g>
					<path fill="#FFFFFF" d="M56.8,84.5c-0.2-6.1-1.3-12.4-4.8-17.6c-2.2-3.2-5.7-4.2-7.9-0.5c-0.2,0.3-0.5,1-0.2,1.2
						c0.1,0.1,0.3,0.1,0.5,0c0.5-0.3,4.1-3.3,7.2,5.9c3.1,9.3,2.7,20-0.4,25.2c-2.3,4.1-6.1,2.2-6.1,2.2c-1.5-0.5-1.1,0.2-0.7,0.8
						c2.5,3.5,6.6,2.4,8.9-0.7C56.5,96.8,57,89.7,56.8,84.5z"/>
				</g>
			</g>
			<g>
				<g>
					
						<ellipse transform="matrix(0.7328 0.6804 -0.6804 0.7328 51.6475 -34.5897)" fill="#FFFFFF" cx="69.9" cy="48.5" rx="3.4" ry="8.4"/>
				</g>
			</g>
			<g>
				<g>
					
						<ellipse transform="matrix(0.3846 0.9231 -0.9231 0.3846 86.6616 -50.3873)" fill="#FFFFFF" cx="81.1" cy="39.8" rx="1.9" ry="3.8"/>
				</g>
			</g>
		</g>
	</g>
</g>
</svg>
